<svg width="1056" height="668" viewBox="0 0 1056 668" fill="none" xmlns="http://www.w3.org/2000/svg">
<path d="M234.974 448.924C260.45 444.003 284.746 446.66 303.399 454.782C322.067 462.91 334.798 476.347 337.98 492.914C341.162 509.481 334.319 526.7 319.996 541.201C305.686 555.691 284.113 567.209 258.637 572.13C233.16 577.051 208.866 574.394 190.213 566.272C171.544 558.144 158.813 544.706 155.631 528.139C152.45 511.572 159.293 494.354 173.615 479.853C187.926 465.363 209.498 453.845 234.974 448.924Z" fill="#94F2FE" stroke="#F9F9F9" stroke-width="6.06557"/>
<path d="M528 3.0332C382.681 3.0332 251.262 40.2991 156.269 100.39C61.2371 160.504 3.0332 243.174 3.0332 334C3.0332 424.826 61.2371 507.496 156.269 567.61C251.262 627.701 382.681 664.967 528 664.967C673.319 664.967 804.738 627.701 899.731 567.61C994.763 507.496 1052.97 424.826 1052.97 334C1052.97 243.174 994.763 160.504 899.731 100.39C804.738 40.2991 673.319 3.0332 528 3.0332Z" fill="#94F2FE" stroke="#F9F9F9" stroke-width="6.06557"/>
<path d="M705.155 609.011C705.785 607.376 706.747 605.998 707.954 604.828C722.003 591.202 765.092 591.796 758.055 610.058C753.84 620.998 725.151 633.777 714.244 629.574C703.336 625.371 700.94 619.95 705.155 609.011Z" fill="white"/>
<path d="M779.01 585.151C781.539 578.587 790.809 574.911 796.808 577.223C802.807 579.534 804.251 587.339 801.722 593.902C799.193 600.466 783.235 603.84 777.236 601.528C771.236 599.217 776.481 591.714 779.01 585.151Z" fill="white"/>
</svg>
