<svg width="141" height="142" viewBox="0 0 141 142" fill="none" xmlns="http://www.w3.org/2000/svg">
<path d="M90.9482 54.2812C90.9482 56.4904 92.7391 58.2812 94.9482 58.2812H136.816C139.026 58.2812 140.816 60.0721 140.816 62.2812V90.5479C140.816 92.757 139.026 94.5479 136.816 94.5479H94.9482C92.7391 94.5479 90.9482 96.3387 90.9482 98.5479V137.391C90.9482 139.6 89.1574 141.391 86.9482 141.391H58.6816C56.4725 141.391 54.6816 139.6 54.6816 137.391V98.5479C54.6816 96.3387 52.8908 94.5479 50.6816 94.5479H8.81641C6.60727 94.5479 4.81641 92.757 4.81641 90.5479V62.2812C4.81641 60.0721 6.60727 58.2812 8.81641 58.2812H50.6816C52.8908 58.2812 54.6816 56.4904 54.6816 54.2812V9.39062C54.6816 7.18148 56.4725 5.39062 58.6816 5.39062H86.9482C89.1574 5.39062 90.9482 7.18149 90.9482 9.39062V54.2812Z" fill="white"/>
</svg>
