<svg width="146" height="146" viewBox="0 0 146 146" fill="none" xmlns="http://www.w3.org/2000/svg">
<path d="M69.1664 12.8703C70.3015 9.05944 75.6985 9.05943 76.8336 12.8703L88.5382 52.1659C89.0433 53.8616 90.6024 55.0241 92.3718 55.0241L130.94 55.0241C134.73 55.0241 136.395 59.8047 133.425 62.1589L101.641 87.349C100.359 88.3648 99.8249 90.0584 100.292 91.6258L112.288 131.902C113.405 135.649 109.035 138.607 105.97 136.179L75.4845 112.017C74.029 110.864 71.971 110.864 70.5155 112.017L40.0296 136.179C36.9653 138.607 32.5954 135.649 33.7116 131.902L45.7083 91.6257C46.1751 90.0584 45.6409 88.3648 44.3592 87.349L12.5753 62.1589C9.60487 59.8047 11.2696 55.0241 15.0598 55.0241L53.6283 55.0241C55.3976 55.0241 56.9567 53.8616 57.4618 52.1659L69.1664 12.8703Z" fill="white"/>
</svg>
