<svg width="72" height="45" viewBox="0 0 72 45" fill="none" xmlns="http://www.w3.org/2000/svg">
<circle cx="10.9281" cy="10.9281" r="11.1103" transform="matrix(-1 0 0 1 33.5137 0.363281)" fill="#0FB6C6" stroke="#D0EEF5" stroke-width="0.364271"/>
<g filter="url(#filter0_dd_1986_4848)">
<path d="M30.6198 8.62554C30.5669 8.96635 30.9433 9.3603 31.318 9.41842C31.6928 9.47654 31.9857 9.18639 32.0386 8.84558C32.0914 8.50477 31.3609 7.95057 30.9862 7.89245C30.6114 7.83433 30.6726 8.28473 30.6198 8.62554Z" fill="white"/>
</g>
<g filter="url(#filter1_dd_1986_4848)">
<path d="M26.481 4.28376C26.458 4.43188 26.4706 4.5751 26.5102 4.71335C26.9736 6.3316 30.2153 8.13301 30.4733 6.46959C30.6275 5.47556 29.0342 3.29739 28.0402 3.14323C27.0462 2.98907 26.6351 3.28974 26.481 4.28376Z" fill="white"/>
</g>
<path d="M22.585 21.8545C16.516 21.8545 11.0052 22.8152 6.99805 24.3809C4.99559 25.1633 3.35007 26.1039 2.19922 27.167C1.04804 28.2305 0.364258 29.444 0.364258 30.7588C0.364363 32.0735 1.04807 33.2872 2.19922 34.3506C3.35006 35.4136 4.99571 36.3544 6.99805 37.1367C11.0052 38.7023 16.5162 39.6621 22.585 39.6621C28.654 39.6621 34.1657 38.7024 38.1729 37.1367C40.175 36.3544 41.8199 35.4135 42.9707 34.3506C44.1219 33.2872 44.8056 32.0735 44.8057 30.7588C44.8057 29.444 44.1219 28.2305 42.9707 27.167C41.8199 26.104 40.1751 25.1632 38.1729 24.3809C34.1657 22.8152 28.654 21.8545 22.585 21.8545Z" fill="#0FB6C6" stroke="#D0EEF5" stroke-width="0.728542"/>
<circle cx="10.9281" cy="10.9281" r="11.1103" transform="matrix(-1 0 0 1 59.8008 0.554688)" fill="#0FB6C6" stroke="#D0EEF5" stroke-width="0.364271"/>
<g filter="url(#filter2_dd_1986_4848)">
<path d="M56.9049 8.81304C56.8521 9.15385 57.2284 9.5478 57.6032 9.60592C57.9779 9.66404 58.2709 9.37389 58.3237 9.03308C58.3766 8.69227 57.6461 8.13807 57.2713 8.07995C56.8966 8.02183 56.9578 8.47223 56.9049 8.81304Z" fill="white"/>
</g>
<g filter="url(#filter3_dd_1986_4848)">
<path d="M52.7642 4.47126C52.7412 4.61938 52.7538 4.7626 52.7934 4.90085C53.2568 6.5191 56.4985 8.32051 56.7565 6.65709C56.9107 5.66306 55.3174 3.48489 54.3234 3.33073C53.3294 3.17657 52.9183 3.47724 52.7642 4.47126Z" fill="white"/>
</g>
<path d="M48.8721 22.0459C42.8032 22.0459 37.2923 23.0066 33.2852 24.5723C31.2827 25.3547 29.6372 26.2953 28.4863 27.3584C27.3351 28.4219 26.6514 29.6354 26.6514 30.9502C26.6515 32.2649 27.3352 33.4786 28.4863 34.542C29.6372 35.605 31.2828 36.5458 33.2852 37.3281C37.2923 38.8937 42.8033 39.8535 48.8721 39.8535C54.9411 39.8535 60.4528 38.8938 64.46 37.3281C66.4621 36.5458 68.107 35.6049 69.2578 34.542C70.409 33.4786 71.0927 32.2649 71.0928 30.9502C71.0928 29.6354 70.4091 28.4219 69.2578 27.3584C68.1071 26.2954 66.4622 25.3546 64.46 24.5723C60.4528 23.0066 54.9411 22.0459 48.8721 22.0459Z" fill="#0FB6C6" stroke="#D0EEF5" stroke-width="0.728542"/>
<circle cx="10.9281" cy="10.9281" r="11.1103" transform="matrix(-1 0 0 1 45.7812 4.74609)" fill="#0FB6C6" stroke="#D0EEF5" stroke-width="0.364271"/>
<g filter="url(#filter4_dd_1986_4848)">
<path d="M42.8874 13.0044C42.8345 13.3453 43.2109 13.7392 43.5856 13.7973C43.9604 13.8554 44.2533 13.5653 44.3062 13.2245C44.359 12.8837 43.6285 12.3295 43.2537 12.2714C42.879 12.2132 42.9402 12.6636 42.8874 13.0044Z" fill="white"/>
</g>
<g filter="url(#filter5_dd_1986_4848)">
<path d="M38.7466 8.66267C38.7236 8.81079 38.7362 8.95401 38.7758 9.09226C39.2393 10.7105 42.481 12.5119 42.7389 10.8485C42.8931 9.85447 41.2998 7.6763 40.3058 7.52214C39.3118 7.36798 38.9007 7.66864 38.7466 8.66267Z" fill="white"/>
</g>
<path d="M34.8525 26.2373C28.7836 26.2373 23.2728 27.198 19.2656 28.7637C17.2632 29.5461 15.6176 30.4867 14.4668 31.5498C13.3156 32.6133 12.6318 33.8268 12.6318 35.1416C12.6319 36.4563 13.3156 37.67 14.4668 38.7334C15.6176 39.7964 17.2633 40.7372 19.2656 41.5195C23.2727 43.0851 28.7837 44.0449 34.8525 44.0449C40.9216 44.0449 46.4333 43.0852 50.4404 41.5195C52.4426 40.7372 54.0875 39.7963 55.2383 38.7334C56.3894 37.67 57.0731 36.4563 57.0732 35.1416C57.0732 33.8268 56.3895 32.6133 55.2383 31.5498C54.0875 30.4868 52.4426 29.546 50.4404 28.7637C46.4333 27.198 40.9216 26.2373 34.8525 26.2373Z" fill="#0FB6C6" stroke="#D0EEF5" stroke-width="0.728542"/>
<defs>
<filter id="filter0_dd_1986_4848" x="30.3092" y="7.58073" width="2.03776" height="2.15104" filterUnits="userSpaceOnUse" color-interpolation-filters="sRGB">
<feFlood flood-opacity="0" result="BackgroundImageFix"/>
<feColorMatrix in="SourceAlpha" type="matrix" values="0 0 0 0 0 0 0 0 0 0 0 0 0 0 0 0 0 0 127 0" result="hardAlpha"/>
<feOffset/>
<feGaussianBlur stdDeviation="0.0764969"/>
<feColorMatrix type="matrix" values="0 0 0 0 1 0 0 0 0 1 0 0 0 0 1 0 0 0 1 0"/>
<feBlend mode="normal" in2="BackgroundImageFix" result="effect1_dropShadow_1986_4848"/>
<feColorMatrix in="SourceAlpha" type="matrix" values="0 0 0 0 0 0 0 0 0 0 0 0 0 0 0 0 0 0 127 0" result="hardAlpha"/>
<feOffset/>
<feGaussianBlur stdDeviation="0.152994"/>
<feColorMatrix type="matrix" values="0 0 0 0 1 0 0 0 0 1 0 0 0 0 1 0 0 0 1 0"/>
<feBlend mode="normal" in2="effect1_dropShadow_1986_4848" result="effect2_dropShadow_1986_4848"/>
<feBlend mode="normal" in="SourceGraphic" in2="effect2_dropShadow_1986_4848" result="shape"/>
</filter>
<filter id="filter1_dd_1986_4848" x="25.9551" y="2.59185" width="5.04287" height="5.05459" filterUnits="userSpaceOnUse" color-interpolation-filters="sRGB">
<feFlood flood-opacity="0" result="BackgroundImageFix"/>
<feColorMatrix in="SourceAlpha" type="matrix" values="0 0 0 0 0 0 0 0 0 0 0 0 0 0 0 0 0 0 127 0" result="hardAlpha"/>
<feOffset/>
<feGaussianBlur stdDeviation="0.128406"/>
<feColorMatrix type="matrix" values="0 0 0 0 1 0 0 0 0 1 0 0 0 0 1 0 0 0 1 0"/>
<feBlend mode="normal" in2="BackgroundImageFix" result="effect1_dropShadow_1986_4848"/>
<feColorMatrix in="SourceAlpha" type="matrix" values="0 0 0 0 0 0 0 0 0 0 0 0 0 0 0 0 0 0 127 0" result="hardAlpha"/>
<feOffset/>
<feGaussianBlur stdDeviation="0.256811"/>
<feColorMatrix type="matrix" values="0 0 0 0 1 0 0 0 0 1 0 0 0 0 1 0 0 0 1 0"/>
<feBlend mode="normal" in2="effect1_dropShadow_1986_4848" result="effect2_dropShadow_1986_4848"/>
<feBlend mode="normal" in="SourceGraphic" in2="effect2_dropShadow_1986_4848" result="shape"/>
</filter>
<filter id="filter2_dd_1986_4848" x="56.5944" y="7.76823" width="2.03776" height="2.15104" filterUnits="userSpaceOnUse" color-interpolation-filters="sRGB">
<feFlood flood-opacity="0" result="BackgroundImageFix"/>
<feColorMatrix in="SourceAlpha" type="matrix" values="0 0 0 0 0 0 0 0 0 0 0 0 0 0 0 0 0 0 127 0" result="hardAlpha"/>
<feOffset/>
<feGaussianBlur stdDeviation="0.0764969"/>
<feColorMatrix type="matrix" values="0 0 0 0 1 0 0 0 0 1 0 0 0 0 1 0 0 0 1 0"/>
<feBlend mode="normal" in2="BackgroundImageFix" result="effect1_dropShadow_1986_4848"/>
<feColorMatrix in="SourceAlpha" type="matrix" values="0 0 0 0 0 0 0 0 0 0 0 0 0 0 0 0 0 0 127 0" result="hardAlpha"/>
<feOffset/>
<feGaussianBlur stdDeviation="0.152994"/>
<feColorMatrix type="matrix" values="0 0 0 0 1 0 0 0 0 1 0 0 0 0 1 0 0 0 1 0"/>
<feBlend mode="normal" in2="effect1_dropShadow_1986_4848" result="effect2_dropShadow_1986_4848"/>
<feBlend mode="normal" in="SourceGraphic" in2="effect2_dropShadow_1986_4848" result="shape"/>
</filter>
<filter id="filter3_dd_1986_4848" x="52.2383" y="2.77935" width="5.04287" height="5.05459" filterUnits="userSpaceOnUse" color-interpolation-filters="sRGB">
<feFlood flood-opacity="0" result="BackgroundImageFix"/>
<feColorMatrix in="SourceAlpha" type="matrix" values="0 0 0 0 0 0 0 0 0 0 0 0 0 0 0 0 0 0 127 0" result="hardAlpha"/>
<feOffset/>
<feGaussianBlur stdDeviation="0.128406"/>
<feColorMatrix type="matrix" values="0 0 0 0 1 0 0 0 0 1 0 0 0 0 1 0 0 0 1 0"/>
<feBlend mode="normal" in2="BackgroundImageFix" result="effect1_dropShadow_1986_4848"/>
<feColorMatrix in="SourceAlpha" type="matrix" values="0 0 0 0 0 0 0 0 0 0 0 0 0 0 0 0 0 0 127 0" result="hardAlpha"/>
<feOffset/>
<feGaussianBlur stdDeviation="0.256811"/>
<feColorMatrix type="matrix" values="0 0 0 0 1 0 0 0 0 1 0 0 0 0 1 0 0 0 1 0"/>
<feBlend mode="normal" in2="effect1_dropShadow_1986_4848" result="effect2_dropShadow_1986_4848"/>
<feBlend mode="normal" in="SourceGraphic" in2="effect2_dropShadow_1986_4848" result="shape"/>
</filter>
<filter id="filter4_dd_1986_4848" x="42.5768" y="11.9596" width="2.03776" height="2.15104" filterUnits="userSpaceOnUse" color-interpolation-filters="sRGB">
<feFlood flood-opacity="0" result="BackgroundImageFix"/>
<feColorMatrix in="SourceAlpha" type="matrix" values="0 0 0 0 0 0 0 0 0 0 0 0 0 0 0 0 0 0 127 0" result="hardAlpha"/>
<feOffset/>
<feGaussianBlur stdDeviation="0.0764969"/>
<feColorMatrix type="matrix" values="0 0 0 0 1 0 0 0 0 1 0 0 0 0 1 0 0 0 1 0"/>
<feBlend mode="normal" in2="BackgroundImageFix" result="effect1_dropShadow_1986_4848"/>
<feColorMatrix in="SourceAlpha" type="matrix" values="0 0 0 0 0 0 0 0 0 0 0 0 0 0 0 0 0 0 127 0" result="hardAlpha"/>
<feOffset/>
<feGaussianBlur stdDeviation="0.152994"/>
<feColorMatrix type="matrix" values="0 0 0 0 1 0 0 0 0 1 0 0 0 0 1 0 0 0 1 0"/>
<feBlend mode="normal" in2="effect1_dropShadow_1986_4848" result="effect2_dropShadow_1986_4848"/>
<feBlend mode="normal" in="SourceGraphic" in2="effect2_dropShadow_1986_4848" result="shape"/>
</filter>
<filter id="filter5_dd_1986_4848" x="38.2208" y="6.97075" width="5.04287" height="5.05459" filterUnits="userSpaceOnUse" color-interpolation-filters="sRGB">
<feFlood flood-opacity="0" result="BackgroundImageFix"/>
<feColorMatrix in="SourceAlpha" type="matrix" values="0 0 0 0 0 0 0 0 0 0 0 0 0 0 0 0 0 0 127 0" result="hardAlpha"/>
<feOffset/>
<feGaussianBlur stdDeviation="0.128406"/>
<feColorMatrix type="matrix" values="0 0 0 0 1 0 0 0 0 1 0 0 0 0 1 0 0 0 1 0"/>
<feBlend mode="normal" in2="BackgroundImageFix" result="effect1_dropShadow_1986_4848"/>
<feColorMatrix in="SourceAlpha" type="matrix" values="0 0 0 0 0 0 0 0 0 0 0 0 0 0 0 0 0 0 127 0" result="hardAlpha"/>
<feOffset/>
<feGaussianBlur stdDeviation="0.256811"/>
<feColorMatrix type="matrix" values="0 0 0 0 1 0 0 0 0 1 0 0 0 0 1 0 0 0 1 0"/>
<feBlend mode="normal" in2="effect1_dropShadow_1986_4848" result="effect2_dropShadow_1986_4848"/>
<feBlend mode="normal" in="SourceGraphic" in2="effect2_dropShadow_1986_4848" result="shape"/>
</filter>
</defs>
</svg>
