<svg width="647" height="256" viewBox="0 0 647 256" fill="none" xmlns="http://www.w3.org/2000/svg">
<g filter="url(#filter0_d_2083_18941)">
<path d="M608.172 174.286C608.605 175.097 611.118 208.173 602.278 222.907C599.549 227.456 593.116 228.163 589.018 228.8C582.202 229.86 572.612 220.217 572.612 220.217C572.612 220.217 563.419 205.816 553.088 196.602C543.818 188.335 531.792 181.086 520.674 175.975C498.063 165.582 454.951 162.504 454.951 162.504L483.147 141.659L487.74 138.751C487.74 138.751 505.258 119.784 510.362 108.196C518.701 89.262 493.925 81.4146 510.362 69.8951C522.448 61.4248 550.14 74.312 550.14 74.312C550.14 74.312 580.227 88.7071 597.856 100.626C612.45 110.493 633.229 128.617 633.229 128.617C633.229 128.617 637.001 139.344 636.172 146.293C634.34 161.646 607.739 173.476 608.172 174.286Z" fill="url(#paint0_linear_2083_18941)"/>
<g filter="url(#filter1_f_2083_18941)">
<path d="M38.2421 180.185C47.2319 198.351 32.6924 212.81 46.8337 227.332C50.4056 230.999 52.0849 230.986 57.1471 231.752C66.5911 233.18 71.8806 221.438 71.8806 221.438C71.8806 221.438 83.2263 203.048 93.9808 194.918C103.631 187.623 107.95 184.432 119.276 180.185C142.31 171.546 187.808 182.48 179.435 159.558C176.244 150.821 164.95 152.191 164.95 152.191L160.53 149.244C160.53 149.244 147.33 135.3 142.85 124.197C135.529 106.056 158.611 85.6925 142.85 74.1036C131.261 65.5824 106.016 74.1036 106.016 74.1036C106.016 74.1036 79.8892 81.897 64.7623 90.3104C39.8326 104.176 10.2484 138.931 10.2484 138.931C10.2484 138.931 9.68944 145.256 10.2484 149.244C12.51 165.381 31.0151 165.58 38.2421 180.185Z" fill="url(#paint1_linear_2083_18941)"/>
</g>
<g filter="url(#filter2_i_2083_18941)">
<g filter="url(#filter3_i_2083_18941)">
<path d="M122.833 63.5547C126.78 63.0129 131.146 62.7345 135.298 63.1494C139.437 63.5632 143.48 64.6783 146.669 67.0234C150.981 70.1944 152.702 74.0595 152.888 78.3105C153.068 82.4329 151.8 86.8682 150.361 91.2588C148.894 95.7391 147.236 100.209 146.371 104.729C145.514 109.211 145.475 113.573 147.162 117.753C149.319 123.097 153.626 129.221 157.472 134.076C159.382 136.488 161.154 138.558 162.448 140.023C163.095 140.756 163.622 141.338 163.986 141.734C164.168 141.932 164.309 142.085 164.404 142.187C164.414 142.197 164.424 142.208 164.434 142.218L168.557 144.966C168.65 144.999 168.774 145.045 168.924 145.102C169.27 145.233 169.757 145.431 170.337 145.697C171.493 146.228 173.044 147.044 174.598 148.184C177.679 150.443 181 154.153 180.907 159.583C180.857 162.508 180.246 164.923 179.077 166.876C177.902 168.839 176.225 170.233 174.218 171.204C170.291 173.103 164.988 173.431 159.309 173.365C156.439 173.332 153.388 173.194 150.292 173.076C147.184 172.958 144.011 172.858 140.844 172.896C134.496 172.971 128.263 173.6 122.74 175.671C111.301 179.961 104.551 181.596 95.1172 188.727C89.9163 192.658 84.494 199.145 80.3271 204.74C78.256 207.521 76.5168 210.052 75.2959 211.887C74.6857 212.804 74.2057 213.547 73.8789 214.059C73.7157 214.314 73.5905 214.512 73.5068 214.646C73.465 214.712 73.4339 214.763 73.4131 214.797C73.4027 214.814 73.3947 214.826 73.3896 214.834C73.3871 214.838 73.3849 214.841 73.3838 214.843L73.3828 214.845L73.3271 214.935L73.2607 215.015L59.752 231.222L59.2549 231.817L58.4814 231.745L58.6201 230.278L58.4805 231.745L58.4775 231.744C58.4759 231.744 58.4732 231.744 58.4707 231.744C58.4654 231.744 58.458 231.742 58.4492 231.741C58.4308 231.739 58.404 231.737 58.3711 231.733C58.3051 231.726 58.2104 231.716 58.0908 231.701C57.8509 231.672 57.5079 231.625 57.0879 231.559C56.2494 231.425 55.0909 231.207 53.8125 230.868C51.323 230.208 48.1053 229.02 46.0264 226.886C38.4038 219.058 39.3315 210.01 40.749 201.207C42.1929 192.241 44.1098 183.516 39.8682 174.944C36.4678 168.073 30.4459 164.595 24.5098 160.62C18.6629 156.705 12.9618 152.305 11.7354 143.556C11.4373 141.429 11.4423 138.743 11.5127 136.648C11.5483 135.589 11.602 134.658 11.6465 133.99C11.6687 133.656 11.6885 133.387 11.7031 133.201C11.7104 133.108 11.7166 133.036 11.7207 132.986C11.7227 132.962 11.7245 132.943 11.7256 132.93C11.7261 132.923 11.7263 132.918 11.7266 132.914V132.908H11.7275V132.907L11.7686 132.439L12.0732 132.082L12.0742 132.08C12.0753 132.079 12.0772 132.077 12.0791 132.075C12.083 132.071 12.0883 132.063 12.0957 132.055C12.1106 132.037 12.1333 132.012 12.1621 131.979C12.22 131.911 12.3055 131.811 12.418 131.681C12.6431 131.42 12.9758 131.037 13.4072 130.545C14.2701 129.561 15.5292 128.143 17.1172 126.398C20.2928 122.91 24.7876 118.113 30.0654 112.881C40.5937 102.443 54.3411 90.1653 66.9922 83.1289C74.6677 78.8599 85.0774 74.7754 93.5137 71.7705C97.7427 70.2642 101.497 69.0219 104.193 68.1562C105.542 67.7234 106.627 67.3843 107.376 67.1533C107.75 67.038 108.04 66.9494 108.237 66.8896C108.336 66.8598 108.412 66.8366 108.463 66.8213C108.488 66.8138 108.507 66.8086 108.521 66.8047H108.518C108.531 66.8002 108.551 66.7939 108.574 66.7861C108.626 66.7692 108.701 66.745 108.798 66.7139C108.993 66.6513 109.277 66.5617 109.642 66.4512C110.371 66.23 111.421 65.9242 112.716 65.5859C115.302 64.9101 118.88 64.0973 122.833 63.5547ZM501.952 68.2148C505.521 68.2481 510.472 68.3433 516.003 68.5918C527.026 69.087 540.487 70.1955 549.869 72.6797C569.696 77.9294 580.788 83.099 597.494 95.0039C605.245 100.527 613.802 109.094 620.381 116.221C623.68 119.795 626.501 123.028 628.496 125.367C629.494 126.537 630.286 127.484 630.829 128.14C631.101 128.467 631.311 128.723 631.453 128.896C631.524 128.983 631.579 129.049 631.615 129.094C631.633 129.116 631.647 129.134 631.656 129.146C631.661 129.151 631.665 129.155 631.667 129.158C631.668 129.16 631.669 129.161 631.67 129.162L631.671 129.163L631.933 129.486L631.987 129.898V129.901C631.988 129.903 631.988 129.906 631.988 129.908C631.989 129.914 631.99 129.923 631.991 129.933C631.994 129.953 631.998 129.984 632.003 130.022C632.013 130.101 632.027 130.216 632.044 130.362C632.078 130.656 632.125 131.08 632.178 131.606C632.283 132.66 632.408 134.131 632.492 135.799C632.658 139.098 632.668 143.311 631.967 146.604C630.155 155.107 622.491 159.607 616.032 163.378C612.693 165.327 609.658 167.078 607.431 169.095C605.248 171.072 604.006 173.16 604.006 175.765V208.292L603.988 208.404L602.532 208.178C603.929 208.395 603.986 208.405 603.988 208.405V208.406C603.988 208.407 603.987 208.409 603.987 208.41C603.987 208.413 603.987 208.416 603.986 208.42C603.985 208.428 603.983 208.44 603.98 208.454C603.976 208.484 603.969 208.526 603.96 208.58C603.942 208.688 603.913 208.843 603.876 209.04C603.802 209.434 603.689 209.996 603.532 210.676C603.219 212.032 602.729 213.877 602.017 215.814C601.307 217.744 600.361 219.816 599.119 221.598C597.884 223.37 596.281 224.963 594.225 225.759C592.01 226.616 589.139 226.583 587.001 226.398C585.898 226.303 584.92 226.16 584.218 226.042C583.866 225.983 583.581 225.929 583.383 225.89C583.284 225.87 583.205 225.854 583.15 225.843C583.123 225.837 583.102 225.832 583.087 225.829C583.079 225.827 583.073 225.826 583.068 225.825C583.067 225.825 583.065 225.824 583.063 225.824H583.062L583.061 225.823L582.587 225.719L582.269 225.354V225.353L582.259 225.343C582.252 225.335 582.242 225.323 582.229 225.309C582.203 225.279 582.164 225.234 582.113 225.176C582.01 225.058 581.858 224.885 581.66 224.66C581.265 224.211 580.69 223.558 579.969 222.746C578.526 221.122 576.499 218.861 574.169 216.312C569.502 211.208 563.639 204.98 558.795 200.41C545.263 187.645 538.708 178.971 522.34 171.202C512.095 166.34 496.804 164.14 483.914 163.179C477.5 162.7 471.737 162.531 467.577 162.482C465.498 162.458 463.821 162.463 462.666 162.475C462.088 162.48 461.641 162.488 461.339 162.494C461.188 162.497 461.073 162.499 460.997 162.501C460.959 162.502 460.93 162.502 460.911 162.503C460.902 162.503 460.895 162.504 460.891 162.504H460.885L456.782 162.617L459.876 159.92L459.879 159.917C459.882 159.915 459.886 159.911 459.892 159.906C459.903 159.897 459.92 159.882 459.942 159.862C459.988 159.823 460.055 159.762 460.144 159.684C460.322 159.526 460.586 159.292 460.925 158.986C461.603 158.376 462.584 157.482 463.785 156.356C466.189 154.105 469.477 150.927 473.009 147.224C480.11 139.779 488.065 130.35 491.923 122.1C500.993 102.706 497.7 82.2302 494.771 70.0273L494.341 68.2344L496.185 68.21H496.212C496.229 68.2098 496.255 68.2093 496.289 68.209C496.357 68.2083 496.457 68.2072 496.588 68.2061C496.85 68.2039 497.236 68.2017 497.733 68.2002C498.728 68.1971 500.168 68.1982 501.952 68.2148Z" fill="#64EAFB"/>
</g>
<path d="M122.833 63.5547L122.633 62.095L122.633 62.095L122.833 63.5547ZM135.298 63.1494L135.444 61.6834L135.444 61.6834L135.298 63.1494ZM146.669 67.0234L147.542 65.8365L147.542 65.8364L146.669 67.0234ZM152.888 78.3105L154.36 78.2463L154.36 78.2463L152.888 78.3105ZM150.361 91.2588L151.761 91.7175V91.7175L150.361 91.2588ZM146.371 104.729L144.924 104.453L144.924 104.453L146.371 104.729ZM147.162 117.753L145.796 118.304L145.796 118.304L147.162 117.753ZM157.472 134.076L156.317 134.991V134.991L157.472 134.076ZM162.448 140.023L161.344 140.999L162.448 140.023ZM163.986 141.734L162.901 142.73V142.73L163.986 141.734ZM164.404 142.187L163.327 143.191L163.327 143.191L164.404 142.187ZM164.434 142.218L163.357 143.224L163.474 143.349L163.616 143.444L164.434 142.218ZM168.557 144.966L167.74 146.192L167.892 146.293L168.065 146.355L168.557 144.966ZM168.924 145.102L169.449 143.725L169.449 143.725L168.924 145.102ZM170.337 145.697L170.952 144.358L170.952 144.358L170.337 145.697ZM174.598 148.184L175.469 146.995L175.469 146.995L174.598 148.184ZM180.907 159.583L182.38 159.608V159.608L180.907 159.583ZM179.077 166.876L180.341 167.633V167.633L179.077 166.876ZM174.218 171.204L174.859 172.53L174.859 172.53L174.218 171.204ZM159.309 173.365L159.291 174.838H159.292L159.309 173.365ZM150.292 173.076L150.348 171.604H150.348L150.292 173.076ZM140.844 172.896L140.826 171.422L140.844 172.896ZM122.74 175.671L122.223 174.291L122.223 174.291L122.74 175.671ZM95.1172 188.727L94.2287 187.551L94.2287 187.551L95.1172 188.727ZM80.3271 204.74L79.1455 203.86H79.1455L80.3271 204.74ZM75.2959 211.887L74.0693 211.071L75.2959 211.887ZM73.8789 214.059L72.6371 213.266L73.8789 214.059ZM73.5068 214.646L72.2587 213.863L73.5068 214.646ZM73.4131 214.797L74.6642 215.575H74.6642L73.4131 214.797ZM73.3896 214.834L72.1372 214.058L72.1371 214.058L73.3896 214.834ZM73.3838 214.843L72.1314 214.067L72.096 214.124L72.066 214.184L73.3838 214.843ZM73.3828 214.845L74.6353 215.621L74.6706 215.564L74.7006 215.504L73.3828 214.845ZM73.3271 214.935L74.4613 215.875L74.5261 215.797L74.5796 215.711L73.3271 214.935ZM73.2607 215.015L74.3925 215.958L74.3949 215.955L73.2607 215.015ZM59.752 231.222L60.8832 232.166L60.8837 232.165L59.752 231.222ZM59.2549 231.817L59.1178 233.284L59.8895 233.356L60.3861 232.761L59.2549 231.817ZM58.4814 231.745L57.0146 231.606L56.8758 233.075L58.3444 233.212L58.4814 231.745ZM58.6201 230.278L60.0869 230.417L57.1534 230.139L58.6201 230.278ZM58.4805 231.745L58.0146 233.143L59.7716 233.729L59.9472 231.885L58.4805 231.745ZM58.4775 231.744L58.9435 230.346L58.7849 230.294L58.6185 230.278L58.4775 231.744ZM58.4707 231.744L58.3274 233.21L58.3436 233.212L58.3598 233.213L58.4707 231.744ZM58.4492 231.741L58.6006 230.276L58.5974 230.275L58.4492 231.741ZM58.3711 231.733L58.2127 233.198L58.2129 233.198L58.3711 231.733ZM58.0908 231.701L57.9105 233.163L57.9105 233.163L58.0908 231.701ZM57.0879 231.559L56.8562 233.014H56.8562L57.0879 231.559ZM53.8125 230.868L53.4349 232.292H53.4349L53.8125 230.868ZM46.0264 226.886L44.9708 227.914L44.9709 227.914L46.0264 226.886ZM40.749 201.207L39.2944 200.973V200.973L40.749 201.207ZM39.8682 174.944L41.1887 174.291L41.1887 174.291L39.8682 174.944ZM24.5098 160.62L23.6899 161.844H23.6899L24.5098 160.62ZM11.7354 143.556L10.2763 143.76L10.2763 143.76L11.7354 143.556ZM11.5127 136.648L10.0402 136.599L10.0402 136.599L11.5127 136.648ZM11.6465 133.99L10.1764 133.892L10.1764 133.892L11.6465 133.99ZM11.7031 133.201L10.2343 133.086L10.2343 133.086L11.7031 133.201ZM11.7207 132.986L10.2525 132.863H10.2525L11.7207 132.986ZM11.7256 132.93L13.1935 133.056L13.1935 133.056L11.7256 132.93ZM11.7266 132.914L13.1947 133.038L13.1999 132.976V132.914H11.7266ZM11.7266 132.908V131.435H10.2532V132.908H11.7266ZM11.7275 132.908V134.382H13.2009V132.908H11.7275ZM11.7275 132.907L10.2598 132.779L10.2542 132.843V132.907H11.7275ZM11.7686 132.439L10.6473 131.484L10.342 131.842L10.3008 132.311L11.7686 132.439ZM12.0732 132.082L13.1945 133.038L13.3108 132.901L13.391 132.741L12.0732 132.082ZM12.0742 132.08L10.9641 131.111L10.8405 131.253L10.7564 131.421L12.0742 132.08ZM12.0791 132.075L13.2002 133.031L13.2012 133.03L12.0791 132.075ZM12.0957 132.055L10.9755 131.098L10.9754 131.098L12.0957 132.055ZM12.1621 131.979L13.2807 132.937L13.2807 132.937L12.1621 131.979ZM12.418 131.681L11.3029 130.718L11.3029 130.718L12.418 131.681ZM13.4072 130.545L12.2998 129.573H12.2998L13.4072 130.545ZM17.1172 126.398L16.0276 125.407H16.0276L17.1172 126.398ZM30.0654 112.881L29.0281 111.835H29.0281L30.0654 112.881ZM66.9922 83.1289L66.276 81.8413L66.276 81.8413L66.9922 83.1289ZM93.5137 71.7705L93.0193 70.3826L93.0193 70.3826L93.5137 71.7705ZM104.193 68.1562L103.743 66.7534V66.7534L104.193 68.1562ZM107.376 67.1533L106.942 65.7455V65.7455L107.376 67.1533ZM108.237 66.8896L107.81 65.4797L107.81 65.4797L108.237 66.8896ZM108.463 66.8213L108.039 65.4103L108.039 65.4103L108.463 66.8213ZM108.521 66.8047L108.943 68.2161L108.521 65.3313V66.8047ZM108.518 66.8047L108.052 65.4069L108.518 68.278V66.8047ZM108.574 66.7861L108.113 65.3868L108.113 65.3869L108.574 66.7861ZM108.798 66.7139L108.347 65.3112L108.347 65.3112L108.798 66.7139ZM109.642 66.4512L109.214 65.0413L109.214 65.0413L109.642 66.4512ZM112.716 65.5859L112.343 64.1604L112.343 64.1604L112.716 65.5859ZM501.952 68.2148L501.966 66.7416L501.952 68.2148ZM516.003 68.5918L516.069 67.1199L516.003 68.5918ZM549.869 72.6797L550.246 71.2554V71.2554L549.869 72.6797ZM597.494 95.0039L598.349 93.804V93.804L597.494 95.0039ZM620.381 116.221L621.464 115.221L620.381 116.221ZM628.496 125.367L629.617 124.411V124.411L628.496 125.367ZM630.829 128.14L631.963 127.199V127.199L630.829 128.14ZM631.453 128.896L630.313 129.83V129.83L631.453 128.896ZM631.615 129.094L632.758 128.164L632.758 128.163L631.615 129.094ZM631.656 129.146L630.512 130.074L630.514 130.076L631.656 129.146ZM631.667 129.158L632.822 128.244L632.817 128.237L632.811 128.23L631.667 129.158ZM631.67 129.162L630.525 130.09L630.574 130.149L630.628 130.204L631.67 129.162ZM631.671 129.163L632.816 128.236L632.767 128.176L632.713 128.121L631.671 129.163ZM631.933 129.486L633.393 129.293L633.339 128.881L633.078 128.559L631.933 129.486ZM631.987 129.898H633.461V129.801L633.448 129.705L631.987 129.898ZM631.987 129.901H630.514V130.003L630.528 130.103L631.987 129.901ZM631.988 129.908L633.45 129.721L633.449 129.718L631.988 129.908ZM631.991 129.933L630.53 130.12V130.12L631.991 129.933ZM632.003 130.022L633.465 129.84V129.84L632.003 130.022ZM632.044 130.362L633.507 130.191V130.191L632.044 130.362ZM632.178 131.606L633.644 131.461V131.461L632.178 131.606ZM632.492 135.799L633.964 135.725V135.725L632.492 135.799ZM631.967 146.604L633.408 146.912V146.911L631.967 146.604ZM616.032 163.378L616.775 164.65L616.032 163.378ZM607.431 169.095L606.442 168.003L606.442 168.003L607.431 169.095ZM604.006 208.292L605.461 208.52L605.479 208.407V208.292H604.006ZM603.988 208.404L603.762 209.86L605.216 210.086L605.444 208.632L603.988 208.404ZM602.532 208.178L602.759 206.722L602.306 209.634L602.532 208.178ZM603.988 208.405H605.462V207.353L604.466 207.012L603.988 208.405ZM603.988 208.406L605.423 208.74L605.462 208.575V208.406H603.988ZM603.987 208.41L602.532 208.181L602.529 208.196L602.527 208.212L603.987 208.41ZM603.986 208.42L605.441 208.653L605.441 208.652L603.986 208.42ZM603.98 208.454L602.526 208.217V208.217L603.98 208.454ZM603.96 208.58L605.412 208.828V208.828L603.96 208.58ZM603.876 209.04L605.324 209.313L605.324 209.313L603.876 209.04ZM603.532 210.676L604.968 211.007V211.007L603.532 210.676ZM602.017 215.814L603.399 216.323L603.4 216.323L602.017 215.814ZM599.119 221.598L600.328 222.44V222.44L599.119 221.598ZM594.225 225.759L594.756 227.133L594.756 227.133L594.225 225.759ZM587.001 226.398L586.875 227.866L587.001 226.398ZM584.218 226.042L583.973 227.495L583.973 227.495L584.218 226.042ZM583.383 225.89L583.097 227.335V227.335L583.383 225.89ZM583.15 225.843L582.847 227.285L582.847 227.285L583.15 225.843ZM583.087 225.829L583.398 224.389L583.398 224.389L583.087 225.829ZM583.068 225.825L582.753 227.264L582.754 227.265L583.068 225.825ZM583.063 225.824L583.372 224.384L583.22 224.351H583.063V225.824ZM583.062 225.824L582.02 226.866L582.451 227.298H583.062V225.824ZM583.061 225.823L584.102 224.781L583.798 224.477L583.378 224.384L583.061 225.823ZM582.587 225.719L581.476 226.687L581.795 227.053L582.269 227.158L582.587 225.719ZM582.269 225.354H580.795V225.906L581.158 226.322L582.269 225.354ZM582.269 225.353H583.742V224.742L583.31 224.311L582.269 225.353ZM582.259 225.343L581.149 226.312L581.182 226.349L581.217 226.385L582.259 225.343ZM582.229 225.309L583.339 224.339L583.339 224.339L582.229 225.309ZM582.113 225.176L583.222 224.205L582.113 225.176ZM581.66 224.66L580.554 225.633L581.66 224.66ZM579.969 222.746L581.07 221.767L579.969 222.746ZM574.169 216.312L575.256 215.318L574.169 216.312ZM558.795 200.41L559.806 199.338V199.338L558.795 200.41ZM522.34 171.202L522.972 169.871L522.34 171.202ZM483.914 163.179L484.024 161.709L483.914 163.179ZM467.577 162.482L467.594 161.009L467.577 162.482ZM462.666 162.475L462.651 161.001L462.666 162.475ZM461.339 162.494L461.31 161.021L461.339 162.494ZM460.997 162.501L460.962 161.028L460.997 162.501ZM460.911 162.503L460.873 161.03H460.873L460.911 162.503ZM460.891 162.504V163.977H460.911L460.932 163.977L460.891 162.504ZM460.885 162.504V161.031H460.864L460.844 161.031L460.885 162.504ZM456.782 162.617L455.814 161.507L452.721 164.203L456.823 164.09L456.782 162.617ZM459.876 159.92L460.844 161.03L460.882 160.997L460.918 160.962L459.876 159.92ZM459.879 159.917L458.91 158.807L458.872 158.84L458.837 158.875L459.879 159.917ZM459.892 159.906L460.861 161.016L460.862 161.015L459.892 159.906ZM459.942 159.862L460.915 160.969L460.915 160.969L459.942 159.862ZM460.144 159.684L459.167 158.58L459.167 158.58L460.144 159.684ZM460.925 158.986L461.911 160.081H461.911L460.925 158.986ZM463.785 156.356L464.792 157.432L463.785 156.356ZM473.009 147.224L474.075 148.241L473.009 147.224ZM491.923 122.1L493.257 122.724L493.257 122.724L491.923 122.1ZM494.771 70.0273L496.204 69.6835L496.204 69.6832L494.771 70.0273ZM494.341 68.2344L494.321 66.7612L492.478 66.7856L492.908 68.5785L494.341 68.2344ZM496.185 68.21V66.7366H496.175L496.165 66.7367L496.185 68.21ZM496.212 68.21V69.6833H496.221L496.23 69.6832L496.212 68.21ZM496.289 68.209L496.273 66.7357H496.273L496.289 68.209ZM496.588 68.2061L496.576 66.7328H496.576L496.588 68.2061ZM497.733 68.2002L497.729 66.7269L497.733 68.2002ZM122.833 63.5547L123.033 65.0143C126.913 64.4818 131.155 64.2161 135.151 64.6155L135.298 63.1494L135.444 61.6834C131.138 61.253 126.647 61.544 122.633 62.095L122.833 63.5547ZM135.298 63.1494L135.151 64.6155C139.148 65.0149 142.899 66.0802 145.796 68.2104L146.669 67.0234L147.542 65.8364C144.06 63.2765 139.727 62.1114 135.444 61.6834L135.298 63.1494ZM146.669 67.0234L145.796 68.2104C149.736 71.1075 151.249 74.5529 151.416 78.3748L152.888 78.3105L154.36 78.2463C154.155 73.5661 152.226 69.2813 147.542 65.8365L146.669 67.0234ZM152.888 78.3105L151.416 78.3748C151.583 82.1973 150.404 86.3974 148.961 90.8001L150.361 91.2588L151.761 91.7175C153.196 87.3389 154.553 82.6684 154.36 78.2463L152.888 78.3105ZM150.361 91.2588L148.961 90.8001C147.519 95.2026 145.812 99.8114 144.924 104.453L146.371 104.729L147.818 105.006C148.66 100.608 150.268 96.2755 151.761 91.7175L150.361 91.2588ZM146.371 104.729L144.924 104.453C144.036 109.094 143.966 113.769 145.796 118.304L147.162 117.753L148.528 117.202C146.985 113.378 146.991 109.328 147.818 105.006L146.371 104.729ZM147.162 117.753L145.796 118.304C148.036 123.856 152.457 130.117 156.317 134.991L157.472 134.076L158.627 133.161C154.796 128.324 150.602 122.339 148.528 117.202L147.162 117.753ZM157.472 134.076L156.317 134.991C158.246 137.428 160.036 139.518 161.344 140.999L162.448 140.023L163.553 139.048C162.271 137.597 160.517 135.548 158.627 133.161L157.472 134.076ZM162.448 140.023L161.344 140.999C161.997 141.739 162.531 142.327 162.901 142.73L163.986 141.734L165.072 140.738C164.714 140.348 164.193 139.773 163.553 139.048L162.448 140.023ZM163.986 141.734L162.901 142.73C163.085 142.932 163.229 143.087 163.327 143.191L164.404 142.187L165.482 141.182C165.389 141.082 165.251 140.933 165.072 140.738L163.986 141.734ZM164.404 142.187L163.327 143.191C163.334 143.199 163.341 143.206 163.346 143.211C163.351 143.217 163.354 143.221 163.357 143.224L164.434 142.218L165.51 141.212C165.478 141.177 165.507 141.208 165.482 141.182L164.404 142.187ZM164.434 142.218L163.616 143.444L167.74 146.192L168.557 144.966L169.374 143.74L165.251 140.992L164.434 142.218ZM168.557 144.966L168.065 146.355C168.145 146.383 168.258 146.424 168.399 146.478L168.924 145.102L169.449 143.725C169.291 143.665 169.156 143.615 169.048 143.577L168.557 144.966ZM168.924 145.102L168.399 146.478C168.718 146.6 169.175 146.785 169.722 147.036L170.337 145.697L170.952 144.358C170.339 144.077 169.822 143.867 169.449 143.725L168.924 145.102ZM170.337 145.697L169.722 147.036C170.817 147.539 172.274 148.307 173.727 149.372L174.598 148.184L175.469 146.995C173.813 145.781 172.17 144.918 170.952 144.358L170.337 145.697ZM174.598 148.184L173.726 149.372C176.633 151.503 179.515 154.818 179.434 159.558L180.907 159.583L182.38 159.608C182.485 153.489 178.726 149.384 175.469 146.995L174.598 148.184ZM180.907 159.583L179.434 159.558C179.387 162.293 178.818 164.44 177.813 166.119L179.077 166.876L180.341 167.633C181.674 165.406 182.327 162.722 182.38 159.608L180.907 159.583ZM179.077 166.876L177.813 166.119C176.808 167.799 175.367 169.012 173.576 169.878L174.218 171.204L174.859 172.53C177.083 171.455 178.997 169.88 180.341 167.633L179.077 166.876ZM174.218 171.204L173.576 169.878C169.994 171.61 165.013 171.958 159.326 171.892L159.309 173.365L159.292 174.838C164.964 174.904 170.588 174.596 174.859 172.53L174.218 171.204ZM159.309 173.365L159.326 171.892C156.482 171.859 153.46 171.723 150.348 171.604L150.292 173.076L150.236 174.548C153.316 174.666 156.396 174.805 159.291 174.838L159.309 173.365ZM150.292 173.076L150.348 171.604C147.236 171.485 144.033 171.384 140.826 171.422L140.844 172.896L140.861 174.369C143.99 174.331 147.131 174.43 150.236 174.548L150.292 173.076ZM140.844 172.896L140.826 171.422C134.412 171.499 127.981 172.132 122.223 174.291L122.74 175.671L123.258 177.05C128.546 175.067 134.58 174.444 140.861 174.369L140.844 172.896ZM122.74 175.671L122.223 174.291C110.898 178.539 103.879 180.257 94.2287 187.551L95.1172 188.727L96.0057 189.902C105.223 182.934 111.705 181.383 123.258 177.05L122.74 175.671ZM95.1172 188.727L94.2287 187.551C88.8515 191.616 83.3261 198.247 79.1455 203.86L80.3271 204.74L81.5088 205.62C85.6619 200.043 90.9812 193.7 96.0057 189.902L95.1172 188.727ZM80.3271 204.74L79.1455 203.86C77.0553 206.667 75.301 209.219 74.0693 211.071L75.2959 211.887L76.5225 212.703C77.7326 210.884 79.4567 208.376 81.5088 205.62L80.3271 204.74ZM75.2959 211.887L74.0693 211.071C73.4531 211.997 72.968 212.747 72.6371 213.266L73.8789 214.059L75.1207 214.852C75.4433 214.346 75.9182 213.611 76.5225 212.703L75.2959 211.887ZM73.8789 214.059L72.6371 213.266C72.4724 213.524 72.345 213.725 72.2587 213.863L73.5068 214.646L74.755 215.428C74.8361 215.299 74.959 215.105 75.1207 214.852L73.8789 214.059ZM73.5068 214.646L72.2587 213.863C72.2193 213.925 72.168 214.009 72.162 214.019L73.4131 214.797L74.6642 215.575C74.6767 215.555 74.6936 215.527 74.7063 215.507C74.7209 215.483 74.7369 215.457 74.755 215.428L73.5068 214.646ZM73.4131 214.797L72.162 214.019C72.161 214.02 72.1597 214.022 72.1566 214.027C72.1556 214.029 72.1524 214.034 72.15 214.038C72.1475 214.042 72.1427 214.049 72.1372 214.058L73.3896 214.834L74.6421 215.61C74.6392 215.615 74.6372 215.618 74.6379 215.617C74.6387 215.615 74.6392 215.615 74.6421 215.61C74.6469 215.603 74.6548 215.59 74.6642 215.575L73.4131 214.797ZM73.3896 214.834L72.1371 214.058C72.1548 214.03 72.1696 214.008 72.1738 214.002C72.1745 214.001 72.1755 214 72.1745 214.001C72.1741 214.002 72.1719 214.005 72.1693 214.009C72.1666 214.013 72.1618 214.02 72.156 214.028C72.1503 214.037 72.1416 214.05 72.1314 214.067L73.3838 214.843L74.6361 215.619C74.6263 215.635 74.6179 215.648 74.6125 215.656C74.6071 215.664 74.6027 215.67 74.6004 215.674C74.5992 215.676 74.5982 215.677 74.5976 215.678C74.597 215.679 74.5966 215.679 74.5965 215.679C74.596 215.68 74.5974 215.678 74.5986 215.676C74.6048 215.667 74.622 215.642 74.6422 215.61L73.3896 214.834ZM73.3838 214.843L72.066 214.184L72.065 214.186L73.3828 214.845L74.7006 215.504L74.7016 215.502L73.3838 214.843ZM73.3828 214.845L72.1304 214.069L72.0747 214.159L73.3271 214.935L74.5796 215.711L74.6353 215.621L73.3828 214.845ZM73.3271 214.935L72.193 213.994L72.1266 214.074L73.2607 215.015L74.3949 215.955L74.4613 215.875L73.3271 214.935ZM73.2607 215.015L72.129 214.071L58.6202 230.278L59.752 231.222L60.8837 232.165L74.3925 215.958L73.2607 215.015ZM59.752 231.222L58.6207 230.278L58.1236 230.873L59.2549 231.817L60.3861 232.761L60.8832 232.166L59.752 231.222ZM59.2549 231.817L59.3919 230.35L58.6185 230.278L58.4814 231.745L58.3444 233.212L59.1178 233.284L59.2549 231.817ZM58.4814 231.745L59.9483 231.884L60.0869 230.417L58.6201 230.278L57.1533 230.14L57.0146 231.606L58.4814 231.745ZM58.6201 230.278L57.1534 230.139L57.0138 231.605L58.4805 231.745L59.9472 231.885L60.0868 230.418L58.6201 230.278ZM58.4805 231.745L58.9464 230.347L58.9435 230.346L58.4775 231.744L58.0116 233.142L58.0146 233.143L58.4805 231.745ZM58.4775 231.744L58.6185 230.278C58.5963 230.275 58.5765 230.274 58.5596 230.273C58.5426 230.272 58.5275 230.272 58.5147 230.271C58.4897 230.271 58.4692 230.271 58.4561 230.271C58.4429 230.271 58.4324 230.271 58.4276 230.272C58.425 230.272 58.4229 230.272 58.422 230.272C58.4215 230.272 58.4211 230.272 58.4211 230.272C58.4209 230.272 58.4211 230.272 58.4214 230.272C58.4221 230.272 58.4273 230.272 58.4339 230.271C58.4408 230.271 58.4513 230.271 58.4641 230.271C58.4769 230.271 58.4933 230.271 58.5125 230.271C58.5317 230.272 58.5551 230.273 58.5816 230.275L58.4707 231.744L58.3598 233.213C58.387 233.215 58.4109 233.216 58.4307 233.217C58.4506 233.218 58.4677 233.218 58.4811 233.218C58.4945 233.217 58.5056 233.217 58.5131 233.217C58.5204 233.217 58.5261 233.217 58.5275 233.217C58.5277 233.217 58.5279 233.217 58.528 233.217C58.5281 233.217 58.5282 233.217 58.5282 233.217C58.5283 233.217 58.5281 233.217 58.5278 233.217C58.5272 233.217 58.5254 233.217 58.523 233.217C58.5188 233.217 58.5088 233.217 58.4961 233.217C58.4835 233.217 58.4636 233.218 58.439 233.217C58.4265 233.217 58.4116 233.216 58.3949 233.215C58.3782 233.214 58.3586 233.213 58.3366 233.211L58.4775 231.744ZM58.4707 231.744L58.614 230.278C58.6308 230.279 58.6447 230.281 58.6546 230.282C58.6645 230.284 58.6725 230.285 58.6773 230.285C58.6821 230.286 58.6857 230.287 58.6865 230.287C58.687 230.287 58.6873 230.287 58.6869 230.287C58.6868 230.287 58.6858 230.287 58.6849 230.287C58.6813 230.286 58.6701 230.284 58.6563 230.282C58.642 230.28 58.623 230.278 58.6006 230.276L58.4492 231.741L58.2978 233.207C58.2798 233.205 58.265 233.203 58.2548 233.202C58.245 233.2 58.2377 233.199 58.2376 233.199C58.2376 233.199 58.2376 233.199 58.2377 233.199C58.2379 233.199 58.2379 233.199 58.2383 233.199C58.2388 233.199 58.2399 233.199 58.2413 233.2C58.2438 233.2 58.249 233.201 58.2554 233.202C58.2618 233.203 58.2712 233.204 58.2826 233.205C58.294 233.207 58.3093 233.209 58.3274 233.21L58.4707 231.744ZM58.4492 231.741L58.5974 230.275C58.5892 230.275 58.5812 230.274 58.5754 230.273C58.5685 230.273 58.5641 230.272 58.5583 230.272C58.5478 230.27 58.5385 230.27 58.5293 230.269L58.3711 231.733L58.2129 233.198C58.2366 233.201 58.2572 233.203 58.2729 233.204C58.2931 233.206 58.2952 233.206 58.3011 233.207L58.4492 231.741ZM58.3711 231.733L58.5295 230.269C58.466 230.262 58.3798 230.252 58.2711 230.239L58.0908 231.701L57.9105 233.163C58.041 233.18 58.1441 233.191 58.2127 233.198L58.3711 231.733ZM58.0908 231.701L58.2711 230.239C58.0463 230.211 57.7206 230.167 57.3195 230.104L57.0879 231.559L56.8562 233.014C57.2952 233.083 57.6554 233.132 57.9105 233.163L58.0908 231.701ZM57.0879 231.559L57.3196 230.104C56.5168 229.976 55.4089 229.767 54.1901 229.444L53.8125 230.868L53.4349 232.292C54.7729 232.647 55.9819 232.874 56.8562 233.014L57.0879 231.559ZM53.8125 230.868L54.1901 229.444C51.7532 228.798 48.8682 227.692 47.0819 225.858L46.0264 226.886L44.9709 227.914C47.3425 230.349 50.8928 231.618 53.4349 232.292L53.8125 230.868ZM46.0264 226.886L47.0819 225.858C40.0114 218.597 40.7856 210.247 42.2036 201.441L40.749 201.207L39.2944 200.973C37.8774 209.773 36.7962 219.519 44.9708 227.914L46.0264 226.886ZM40.749 201.207L42.2036 201.441C43.6212 192.638 45.6837 183.375 41.1887 174.291L39.8682 174.944L38.5476 175.598C42.536 183.658 40.7646 191.843 39.2944 200.973L40.749 201.207ZM39.8682 174.944L41.1887 174.291C37.5749 166.988 31.1393 163.287 25.3296 159.396L24.5098 160.62L23.6899 161.844C29.7526 165.904 35.3606 169.157 38.5477 175.598L39.8682 174.944ZM24.5098 160.62L25.3296 159.396C19.5174 155.504 14.3254 151.419 13.1944 143.351L11.7354 143.556L10.2763 143.76C11.5982 153.191 17.8084 157.905 23.6899 161.844L24.5098 160.62ZM11.7354 143.556L13.1944 143.351C12.915 141.357 12.9153 138.778 12.9852 136.698L11.5127 136.648L10.0402 136.599C9.96929 138.709 9.95957 141.5 10.2763 143.76L11.7354 143.556ZM11.5127 136.648L12.9852 136.698C13.0201 135.659 13.0729 134.744 13.1166 134.088L11.6465 133.99L10.1764 133.892C10.1311 134.571 10.0764 135.52 10.0402 136.599L11.5127 136.648ZM11.6465 133.99L13.1166 134.088C13.1385 133.759 13.1579 133.496 13.172 133.317L11.7031 133.201L10.2343 133.086C10.2192 133.278 10.199 133.553 10.1764 133.892L11.6465 133.99ZM11.7031 133.201L13.1719 133.317C13.1789 133.228 13.1847 133.16 13.1889 133.109L11.7207 132.986L10.2525 132.863C10.2484 132.912 10.2419 132.989 10.2343 133.086L11.7031 133.201ZM11.7207 132.986L13.1889 133.109C13.1898 133.099 13.1905 133.09 13.1913 133.082C13.1919 133.075 13.1929 133.063 13.1935 133.056L11.7256 132.93L10.2577 132.803C10.2571 132.81 10.2547 132.837 10.2525 132.863L11.7207 132.986ZM11.7256 132.93L13.1935 133.056C13.1948 133.041 13.1957 133.028 13.1963 133.018C13.197 133.008 13.1974 133 13.1976 132.997C13.1976 132.996 13.1976 132.995 13.1977 132.995C13.1977 132.994 13.1976 132.995 13.1977 132.994C13.1977 132.994 13.1977 132.994 13.1977 132.994C13.1977 132.994 13.1977 132.995 13.1976 132.995C13.1976 132.996 13.1975 132.997 13.1975 132.998C13.1973 133.001 13.197 133.006 13.1967 133.012C13.1963 133.018 13.1956 133.027 13.1947 133.038L11.7266 132.914L10.2584 132.79C10.2574 132.802 10.2567 132.812 10.2563 132.819C10.2558 132.826 10.2555 132.832 10.2553 132.836C10.2551 132.839 10.2549 132.842 10.2548 132.844C10.2548 132.844 10.2548 132.845 10.2548 132.845C10.2548 132.845 10.2548 132.845 10.2548 132.845C10.2548 132.844 10.2551 132.839 10.2555 132.832C10.256 132.825 10.2566 132.815 10.2577 132.803L11.7256 132.93ZM11.7266 132.914H13.1999V132.908H11.7266H10.2532V132.914H11.7266ZM11.7266 132.908V134.382H11.7275V132.908V131.435H11.7266V132.908ZM11.7275 132.908H13.2009V132.907H11.7275H10.2542V132.908H11.7275ZM11.7275 132.907L13.1953 133.036L13.2363 132.568L11.7686 132.439L10.3008 132.311L10.2598 132.779L11.7275 132.907ZM11.7686 132.439L12.8898 133.395L13.1945 133.038L12.0732 132.082L10.952 131.126L10.6473 131.484L11.7686 132.439ZM12.0732 132.082L13.391 132.741L13.392 132.739L12.0742 132.08L10.7564 131.421L10.7554 131.423L12.0732 132.082ZM12.0742 132.08L13.1843 133.049C13.1717 133.063 13.1602 133.076 13.1502 133.087C13.1402 133.097 13.1312 133.107 13.1236 133.114C13.1087 133.129 13.0965 133.141 13.0896 133.148C13.0827 133.154 13.0773 133.159 13.0765 133.16C13.0764 133.16 13.0762 133.16 13.0761 133.16C13.076 133.16 13.076 133.16 13.076 133.16C13.0759 133.16 13.0762 133.16 13.0764 133.16C13.0769 133.16 13.0782 133.158 13.0799 133.157C13.0863 133.151 13.1029 133.135 13.1232 133.115C13.144 133.094 13.1707 133.066 13.2002 133.031L12.0791 132.075L10.958 131.119C10.9865 131.086 11.0123 131.059 11.0322 131.039C11.0516 131.019 11.0673 131.004 11.0728 130.999C11.0742 130.998 11.0754 130.997 11.0757 130.997C11.0758 130.997 11.076 130.996 11.0758 130.997C11.0757 130.997 11.0753 130.997 11.0749 130.997C11.0741 130.998 11.0724 131 11.0701 131.002C11.0679 131.004 11.0646 131.007 11.0608 131.011C11.0569 131.014 11.0519 131.019 11.0462 131.025C11.0405 131.03 11.0335 131.037 11.0257 131.045C11.0179 131.053 11.0088 131.062 10.9986 131.073C10.9885 131.084 10.9768 131.097 10.9641 131.111L12.0742 132.08ZM12.0791 132.075L13.2012 133.03C13.2103 133.019 13.2179 133.01 13.2232 133.004C13.2285 132.997 13.2329 132.992 13.2357 132.988C13.2384 132.985 13.2407 132.982 13.2417 132.98C13.2419 132.98 13.2422 132.98 13.2424 132.98C13.2426 132.979 13.2427 132.979 13.2428 132.979C13.243 132.979 13.243 132.979 13.2428 132.979C13.2419 132.98 13.2311 132.994 13.216 133.012L12.0957 132.055L10.9754 131.098C10.9529 131.124 10.9358 131.146 10.9293 131.154C10.9285 131.155 10.9278 131.156 10.9274 131.156C10.9267 131.157 10.9268 131.157 10.9265 131.158C10.9262 131.158 10.9273 131.157 10.9289 131.155C10.9305 131.152 10.9338 131.148 10.9381 131.143C10.9423 131.138 10.9488 131.13 10.957 131.12L12.0791 132.075ZM12.0957 132.055L13.2159 133.012C13.2137 133.014 13.2132 133.015 13.2164 133.011C13.2199 133.007 13.223 133.004 13.2299 132.996C13.2422 132.982 13.26 132.962 13.2807 132.937L12.1621 131.979L11.0435 131.02C11.0353 131.029 11.0274 131.038 11.0174 131.05C11.0132 131.054 11.0061 131.062 11.0002 131.069C10.9941 131.076 10.9852 131.086 10.9755 131.098L12.0957 132.055ZM12.1621 131.979L13.2807 132.937C13.3402 132.868 13.4228 132.771 13.533 132.644L12.418 131.681L11.3029 130.718C11.1881 130.851 11.0998 130.954 11.0435 131.02L12.1621 131.979ZM12.418 131.681L13.533 132.644C13.7559 132.386 14.086 132.005 14.5147 131.517L13.4072 130.545L12.2998 129.573C11.8655 130.068 11.5304 130.454 11.3029 130.718L12.418 131.681ZM13.4072 130.545L14.5147 131.517C15.3723 130.539 16.6253 129.128 18.2067 127.39L17.1172 126.398L16.0276 125.407C14.433 127.159 13.168 128.584 12.2998 129.573L13.4072 130.545ZM17.1172 126.398L18.2067 127.39C21.3697 123.915 25.8468 119.138 31.1027 113.927L30.0654 112.881L29.0281 111.835C23.7284 117.089 19.216 121.904 16.0276 125.407L17.1172 126.398ZM30.0654 112.881L31.1027 113.927C41.615 103.505 55.2435 91.3493 67.7083 84.4165L66.9922 83.1289L66.276 81.8413C53.4386 88.9814 39.5724 101.381 29.0281 111.835L30.0654 112.881ZM66.9922 83.1289L67.7083 84.4165C75.2718 80.2098 85.5855 76.1585 94.008 73.1584L93.5137 71.7705L93.0193 70.3826C84.5693 73.3924 74.0636 77.51 66.276 81.8413L66.9922 83.1289ZM93.5137 71.7705L94.008 73.1584C98.2193 71.6585 101.958 70.4212 104.644 69.5591L104.193 68.1562L103.743 66.7534C101.035 67.6226 97.2661 68.8699 93.0193 70.3826L93.5137 71.7705ZM104.193 68.1562L104.644 69.5591C105.986 69.1281 107.066 68.7907 107.81 68.5612L107.376 67.1533L106.942 65.7455C106.188 65.9779 105.097 66.3187 103.743 66.7534L104.193 68.1562ZM107.376 67.1533L107.81 68.5612C108.182 68.4465 108.47 68.3587 108.665 68.2996L108.237 66.8896L107.81 65.4797C107.61 65.5401 107.318 65.6294 106.942 65.7455L107.376 67.1533ZM108.237 66.8896L108.665 68.2996C108.766 68.2689 108.838 68.2469 108.887 68.2322L108.463 66.8213L108.039 65.4103C107.986 65.4263 107.905 65.4507 107.81 65.4797L108.237 66.8896ZM108.463 66.8213L108.887 68.2323C108.888 68.2321 108.889 68.2316 108.896 68.2296C108.898 68.2291 108.907 68.2267 108.912 68.2252C108.918 68.2234 108.93 68.2201 108.943 68.2161L108.521 66.8047L108.098 65.3933C108.105 65.3912 108.109 65.39 108.107 65.3905C108.104 65.3913 108.104 65.3914 108.096 65.3937C108.084 65.3971 108.063 65.4029 108.039 65.4103L108.463 66.8213ZM108.521 66.8047V65.3313H108.518V66.8047V68.278H108.521V66.8047ZM108.518 66.8047L108.983 68.2025C108.983 68.2025 108.983 68.2024 108.984 68.2022C108.985 68.2019 108.986 68.2016 108.987 68.2011C108.99 68.2002 108.994 68.199 108.999 68.1974C109.008 68.1944 109.021 68.1902 109.035 68.1854L108.574 66.7861L108.113 65.3869C108.104 65.3899 108.095 65.3926 108.086 65.3958C108.077 65.3985 108.064 65.4028 108.052 65.4069L108.518 66.8047ZM108.574 66.7861L109.035 68.1854C109.08 68.1706 109.149 68.1487 109.249 68.1166L108.798 66.7139L108.347 65.3112C108.253 65.3413 108.171 65.3677 108.113 65.3868L108.574 66.7861ZM108.798 66.7139L109.249 68.1166C109.435 68.0565 109.712 67.9694 110.069 67.861L109.642 66.4512L109.214 65.0413C108.842 65.154 108.55 65.246 108.347 65.3112L108.798 66.7139ZM109.642 66.4512L110.069 67.861C110.783 67.6445 111.815 67.3441 113.088 67.0114L112.716 65.5859L112.343 64.1604C111.028 64.5043 109.958 64.8154 109.214 65.0413L109.642 66.4512ZM112.716 65.5859L113.088 67.0114C115.636 66.3457 119.154 65.5469 123.033 65.0143L122.833 63.5547L122.633 62.095C118.605 62.6478 114.968 63.4745 112.343 64.1604L112.716 65.5859ZM501.952 68.2148L501.938 69.6881C505.494 69.7213 510.428 69.8161 515.937 70.0637L516.003 68.5918L516.069 67.1199C510.517 66.8705 505.547 66.7749 501.966 66.7416L501.952 68.2148ZM516.003 68.5918L515.937 70.0637C526.955 70.5587 540.277 71.6639 549.492 74.104L549.869 72.6797L550.246 71.2554C540.697 68.7271 527.096 67.6154 516.069 67.1199L516.003 68.5918ZM549.869 72.6797L549.492 74.104C569.149 79.3088 580.079 84.4031 596.639 96.2038L597.494 95.0039L598.349 93.804C581.497 81.7949 570.242 76.55 550.246 71.2554L549.869 72.6797ZM597.494 95.0039L596.639 96.2038C604.26 101.634 612.732 110.106 619.298 117.22L620.381 116.221L621.464 115.221C614.873 108.081 606.231 99.4204 598.349 93.804L597.494 95.0039ZM620.381 116.221L619.298 117.22C622.581 120.777 625.389 123.995 627.375 126.323L628.496 125.367L629.617 124.411C627.612 122.061 624.779 118.813 621.464 115.221L620.381 116.221ZM628.496 125.367L627.375 126.323C628.368 127.487 629.155 128.429 629.695 129.08L630.829 128.14L631.963 127.199C631.416 126.539 630.62 125.587 629.617 124.411L628.496 125.367ZM630.829 128.14L629.695 129.08C629.965 129.405 630.173 129.659 630.313 129.83L631.453 128.896L632.593 127.963C632.449 127.787 632.237 127.529 631.963 127.199L630.829 128.14ZM631.453 128.896L630.313 129.83C630.397 129.933 630.434 129.977 630.473 130.024L631.615 129.094L632.758 128.163C632.723 128.121 632.651 128.033 632.593 127.963L631.453 128.896ZM631.615 129.094L630.472 130.024C630.473 130.024 630.474 130.025 630.479 130.032C630.48 130.033 630.486 130.041 630.49 130.046C630.494 130.051 630.503 130.062 630.512 130.074L631.656 129.146L632.8 128.217C632.805 128.223 632.809 128.227 632.807 128.226C632.805 128.223 632.805 128.223 632.799 128.216C632.791 128.205 632.776 128.186 632.758 128.164L631.615 129.094ZM631.656 129.146L630.514 130.076C630.53 130.095 630.543 130.111 630.547 130.115C630.547 130.116 630.548 130.116 630.548 130.116C630.548 130.117 630.548 130.117 630.548 130.117C630.548 130.117 630.547 130.115 630.545 130.113C630.544 130.112 630.541 130.108 630.537 130.104C630.534 130.1 630.529 130.094 630.523 130.086L631.667 129.158L632.811 128.23C632.805 128.222 632.799 128.215 632.795 128.21C632.79 128.205 632.787 128.201 632.784 128.198C632.782 128.195 632.78 128.193 632.779 128.192C632.779 128.192 632.779 128.191 632.778 128.191C632.778 128.191 632.778 128.191 632.778 128.191C632.778 128.191 632.787 128.201 632.799 128.215L631.656 129.146ZM631.667 129.158L630.512 130.072C630.506 130.065 630.501 130.059 630.497 130.054C630.493 130.049 630.49 130.045 630.488 130.041C630.483 130.035 630.48 130.031 630.48 130.03C630.479 130.03 630.48 130.031 630.481 130.032C630.482 130.033 630.484 130.036 630.486 130.039C630.489 130.043 630.493 130.049 630.499 130.056C630.502 130.06 630.505 130.065 630.51 130.07C630.514 130.075 630.519 130.082 630.525 130.09L631.67 129.162L632.815 128.235C632.821 128.242 632.826 128.249 632.83 128.254C632.834 128.259 632.838 128.264 632.841 128.267C632.846 128.274 632.85 128.28 632.852 128.283C632.855 128.286 632.857 128.289 632.857 128.29C632.858 128.29 632.859 128.292 632.858 128.29C632.857 128.29 632.853 128.284 632.848 128.277C632.845 128.274 632.842 128.269 632.838 128.264C632.834 128.258 632.828 128.252 632.822 128.244L631.667 129.158ZM631.67 129.162L630.628 130.204L630.629 130.205L631.671 129.163L632.713 128.121L632.712 128.12L631.67 129.162ZM631.671 129.163L630.526 130.09L630.788 130.413L631.933 129.486L633.078 128.559L632.816 128.236L631.671 129.163ZM631.933 129.486L630.472 129.68L630.527 130.092L631.987 129.898L633.448 129.705L633.393 129.293L631.933 129.486ZM631.987 129.898H630.514V129.901H631.987H633.461V129.898H631.987ZM631.987 129.901L630.528 130.103C630.528 130.107 630.529 130.11 630.529 130.112C630.529 130.115 630.53 130.116 630.53 130.117C630.53 130.118 630.53 130.119 630.53 130.119C630.53 130.12 630.53 130.119 630.53 130.119C630.53 130.118 630.53 130.116 630.529 130.112C630.529 130.109 630.528 130.104 630.527 130.098L631.988 129.908L633.449 129.718C633.448 129.711 633.448 129.705 633.447 129.7C633.446 129.696 633.446 129.692 633.445 129.69C633.445 129.689 633.445 129.688 633.445 129.688C633.445 129.687 633.445 129.688 633.445 129.688C633.445 129.689 633.445 129.69 633.446 129.692C633.446 129.693 633.446 129.696 633.447 129.7L631.987 129.901ZM631.988 129.908L630.527 130.095C630.526 130.092 630.526 130.089 630.526 130.088C630.526 130.086 630.526 130.085 630.526 130.085C630.526 130.085 630.526 130.085 630.526 130.085C630.526 130.086 630.526 130.088 630.526 130.089C630.527 130.094 630.528 130.106 630.53 130.12L631.991 129.933L633.453 129.745C633.453 129.749 633.453 129.752 633.453 129.749C633.453 129.748 633.453 129.748 633.453 129.746C633.453 129.745 633.452 129.743 633.452 129.741C633.452 129.738 633.451 129.73 633.45 129.721L631.988 129.908ZM631.991 129.933L630.53 130.12C630.532 130.135 630.534 130.154 630.536 130.165C630.537 130.178 630.539 130.191 630.541 130.205L632.003 130.022L633.465 129.84C633.462 129.815 633.459 129.794 633.457 129.777C633.454 129.757 633.453 129.751 633.453 129.745L631.991 129.933ZM632.003 130.022L630.541 130.205C630.55 130.28 630.564 130.391 630.581 130.534L632.044 130.362L633.507 130.191C633.49 130.04 633.475 129.922 633.465 129.84L632.003 130.022ZM632.044 130.362L630.581 130.534C630.614 130.819 630.66 131.234 630.712 131.752L632.178 131.606L633.644 131.461C633.591 130.925 633.543 130.493 633.507 130.191L632.044 130.362ZM632.178 131.606L630.712 131.752C630.815 132.788 630.938 134.234 631.021 135.873L632.492 135.799L633.964 135.725C633.878 134.027 633.75 132.532 633.644 131.461L632.178 131.606ZM632.492 135.799L631.021 135.873C631.185 139.15 631.185 143.202 630.526 146.297L631.967 146.604L633.408 146.911C634.152 143.42 634.131 139.046 633.964 135.725L632.492 135.799ZM631.967 146.604L630.526 146.297C628.872 154.06 621.872 158.263 615.289 162.106L616.032 163.378L616.775 164.65C623.111 160.952 631.438 156.155 633.408 146.912L631.967 146.604ZM616.032 163.378L615.289 162.106C611.998 164.027 608.808 165.86 606.442 168.003L607.431 169.095L608.42 170.187C610.508 168.296 613.387 166.628 616.775 164.65L616.032 163.378ZM607.431 169.095L606.442 168.003C604.074 170.147 602.533 172.601 602.533 175.765H604.006H605.479C605.479 173.718 606.421 171.997 608.42 170.187L607.431 169.095ZM604.006 175.765H602.533V208.292H604.006H605.479V175.765H604.006ZM604.006 208.292L602.55 208.064L602.533 208.176L603.988 208.404L605.444 208.632L605.461 208.52L604.006 208.292ZM603.988 208.404L604.215 206.948L602.759 206.722L602.532 208.178L602.306 209.634L603.762 209.86L603.988 208.404ZM602.532 208.178L602.306 209.634C603.004 209.742 603.367 209.799 603.555 209.828C603.65 209.843 603.699 209.851 603.724 209.855C603.737 209.857 603.74 209.857 603.738 209.857C603.737 209.857 603.735 209.857 603.732 209.856C603.729 209.856 603.724 209.855 603.717 209.853C603.711 209.852 603.695 209.849 603.675 209.845C603.671 209.844 603.598 209.829 603.51 209.799L603.988 208.405L604.466 207.012C604.378 206.981 604.305 206.966 604.301 206.965C604.28 206.961 604.264 206.958 604.257 206.957C604.243 206.954 604.231 206.952 604.227 206.951C604.216 206.949 604.203 206.947 604.189 206.945C604.159 206.94 604.106 206.932 604.011 206.917C603.821 206.887 603.457 206.831 602.759 206.722L602.532 208.178ZM603.988 208.405H602.515V208.406H603.988H605.462V208.405H603.988ZM603.988 208.406L602.553 208.073C602.557 208.056 602.561 208.042 602.562 208.035C602.564 208.028 602.566 208.022 602.566 208.02C602.567 208.018 602.568 208.016 602.567 208.017C602.567 208.018 602.566 208.02 602.565 208.024C602.564 208.029 602.56 208.045 602.555 208.066C602.552 208.076 602.549 208.091 602.545 208.109C602.542 208.126 602.537 208.151 602.532 208.181L603.987 208.41L605.443 208.639C605.438 208.669 605.433 208.694 605.43 208.711C605.426 208.728 605.423 208.742 605.42 208.753C605.415 208.773 605.411 208.788 605.41 208.793C605.409 208.796 605.409 208.798 605.409 208.798C605.408 208.799 605.409 208.796 605.41 208.794C605.41 208.791 605.412 208.785 605.414 208.778C605.416 208.771 605.419 208.757 605.423 208.74L603.988 208.406ZM603.987 208.41L602.527 208.212C602.524 208.233 602.523 208.251 602.521 208.263C602.52 208.275 602.519 208.285 602.519 208.291C602.518 208.297 602.518 208.302 602.518 208.303C602.518 208.303 602.518 208.304 602.518 208.304C602.518 208.304 602.518 208.304 602.518 208.304C602.518 208.303 602.518 208.303 602.518 208.301C602.518 208.297 602.519 208.283 602.521 208.265C602.523 208.246 602.526 208.22 602.531 208.188L603.986 208.42L605.441 208.652C605.447 208.618 605.45 208.59 605.452 208.569C605.454 208.549 605.455 208.534 605.456 208.528C605.456 208.525 605.456 208.522 605.456 208.524C605.456 208.524 605.456 208.528 605.456 208.533C605.455 208.538 605.454 208.548 605.453 208.559C605.452 208.571 605.45 208.588 605.447 208.609L603.987 208.41ZM603.986 208.42L602.532 208.186C602.533 208.18 602.534 208.175 602.534 208.175C602.534 208.175 602.534 208.175 602.533 208.175C602.533 208.177 602.533 208.177 602.533 208.179C602.532 208.186 602.529 208.2 602.526 208.217L603.98 208.454L605.435 208.691C605.434 208.694 605.434 208.695 605.435 208.69C605.435 208.689 605.436 208.683 605.437 208.679C605.438 208.674 605.439 208.664 605.441 208.653L603.986 208.42ZM603.98 208.454L602.526 208.217C602.525 208.228 602.523 208.238 602.521 208.247C602.52 208.257 602.519 208.265 602.517 208.275C602.514 208.293 602.511 208.312 602.508 208.332L603.96 208.58L605.412 208.828C605.422 208.769 605.433 208.701 605.435 208.691L603.98 208.454ZM603.96 208.58L602.508 208.332C602.491 208.427 602.465 208.572 602.428 208.767L603.876 209.04L605.324 209.313C605.361 209.115 605.392 208.949 605.412 208.828L603.96 208.58ZM603.876 209.04L602.428 208.767C602.357 209.145 602.248 209.687 602.097 210.345L603.532 210.676L604.968 211.007C605.13 210.305 605.247 209.723 605.324 209.313L603.876 209.04ZM603.532 210.676L602.097 210.345C601.793 211.661 601.318 213.443 600.634 215.306L602.017 215.814L603.4 216.323C604.139 214.311 604.646 212.403 604.968 211.007L603.532 210.676ZM602.017 215.814L600.634 215.306C599.949 217.169 599.054 219.114 597.91 220.755L599.119 221.598L600.328 222.44C601.668 220.518 602.666 218.319 603.399 216.323L602.017 215.814ZM599.119 221.598L597.91 220.755C596.766 222.396 595.373 223.734 593.693 224.385L594.225 225.759L594.756 227.133C597.188 226.192 599.001 224.344 600.328 222.44L599.119 221.598ZM594.225 225.759L593.693 224.385C591.814 225.112 589.235 225.112 587.127 224.931L587.001 226.398L586.875 227.866C589.044 228.053 592.206 228.119 594.756 227.133L594.225 225.759ZM587.001 226.398L587.127 224.931C586.074 224.84 585.137 224.703 584.463 224.589L584.218 226.042L583.973 227.495C584.703 227.618 585.721 227.767 586.875 227.866L587.001 226.398ZM584.218 226.042L584.463 224.589C584.127 224.532 583.856 224.481 583.669 224.444L583.383 225.89L583.097 227.335C583.307 227.377 583.606 227.433 583.973 227.495L584.218 226.042ZM583.383 225.89L583.669 224.444C583.569 224.425 583.498 224.41 583.453 224.401L583.15 225.843L582.847 227.285C582.911 227.298 582.998 227.315 583.097 227.335L583.383 225.89ZM583.15 225.843L583.454 224.401C583.444 224.399 583.435 224.397 583.426 224.395C583.422 224.394 583.418 224.393 583.413 224.392C583.409 224.391 583.403 224.39 583.398 224.389L583.087 225.829L582.776 227.269C582.782 227.271 582.815 227.278 582.847 227.285L583.15 225.843ZM583.087 225.829L583.398 224.389C583.388 224.387 583.379 224.385 583.376 224.384C583.373 224.384 583.374 224.384 583.374 224.384C583.374 224.384 583.378 224.385 583.382 224.386L583.068 225.825L582.754 227.265C582.761 227.266 582.767 227.267 582.77 227.268C582.773 227.269 582.776 227.269 582.777 227.27C582.78 227.27 582.778 227.27 582.776 227.269L583.087 225.829ZM583.068 225.825L583.384 224.386C583.373 224.384 583.363 224.382 583.357 224.38C583.35 224.379 583.345 224.378 583.343 224.378C583.343 224.378 583.343 224.378 583.342 224.378C583.342 224.378 583.342 224.378 583.343 224.378C583.343 224.378 583.344 224.378 583.346 224.378C583.348 224.379 583.352 224.379 583.356 224.38C583.36 224.381 583.365 224.382 583.372 224.384L583.063 225.824L582.755 227.265C582.762 227.266 582.768 227.268 582.772 227.268C582.777 227.269 582.78 227.27 582.783 227.271C582.785 227.271 582.787 227.271 582.788 227.272C582.788 227.272 582.788 227.272 582.788 227.272C582.788 227.272 582.788 227.272 582.788 227.272C582.788 227.272 582.788 227.272 582.788 227.272C582.787 227.271 582.783 227.271 582.777 227.27C582.772 227.268 582.763 227.267 582.753 227.264L583.068 225.825ZM583.063 225.824V224.351H583.062V225.824V227.298H583.063V225.824ZM583.062 225.824L584.103 224.782L584.102 224.781L583.061 225.823L582.019 226.865L582.02 226.866L583.062 225.824ZM583.061 225.823L583.378 224.384L582.904 224.28L582.587 225.719L582.269 227.158L582.743 227.262L583.061 225.823ZM582.587 225.719L583.698 224.751L583.379 224.385L582.269 225.354L581.158 226.322L581.476 226.687L582.587 225.719ZM582.269 225.354H583.742V225.353H582.269H580.795V225.354H582.269ZM582.269 225.353L583.31 224.311L583.301 224.301L582.259 225.343L581.217 226.385L581.227 226.394L582.269 225.353ZM582.259 225.343L583.369 224.374C583.373 224.379 583.376 224.382 583.375 224.381C583.374 224.38 583.374 224.38 583.369 224.375C583.363 224.367 583.352 224.354 583.339 224.339L582.229 225.309L581.12 226.278C581.12 226.277 581.12 226.278 581.124 226.282C581.124 226.283 581.129 226.288 581.132 226.292C581.135 226.295 581.141 226.303 581.149 226.312L582.259 225.343ZM582.229 225.309L583.339 224.339C583.312 224.309 583.273 224.264 583.222 224.205L582.113 225.176L581.005 226.146C581.056 226.205 581.095 226.249 581.12 226.278L582.229 225.309ZM582.113 225.176L583.222 224.205C583.118 224.086 582.963 223.911 582.766 223.687L581.66 224.66L580.554 225.633C580.752 225.859 580.903 226.031 581.005 226.146L582.113 225.176ZM581.66 224.66L582.766 223.687C582.371 223.237 581.794 222.582 581.07 221.767L579.969 222.746L578.867 223.725C579.586 224.534 580.16 225.185 580.554 225.633L581.66 224.66ZM579.969 222.746L581.07 221.767C579.623 220.139 577.592 217.873 575.256 215.318L574.169 216.312L573.082 217.307C575.406 219.849 577.428 222.105 578.867 223.725L579.969 222.746ZM574.169 216.312L575.256 215.318C570.584 210.209 564.691 203.947 559.806 199.338L558.795 200.41L557.784 201.482C562.586 206.012 568.419 212.207 573.082 217.307L574.169 216.312ZM558.795 200.41L559.806 199.338C546.408 186.699 539.613 177.769 522.972 169.871L522.34 171.202L521.708 172.533C537.803 180.172 544.119 188.591 557.784 201.482L558.795 200.41ZM522.34 171.202L522.972 169.871C512.459 164.882 496.927 162.672 484.024 161.709L483.914 163.179L483.804 164.648C496.681 165.609 511.731 167.798 521.708 172.533L522.34 171.202ZM483.914 163.179L484.024 161.709C477.572 161.228 471.776 161.058 467.594 161.009L467.577 162.482L467.56 163.956C471.697 164.004 477.429 164.172 483.804 164.648L483.914 163.179ZM467.577 162.482L467.594 161.009C465.504 160.985 463.816 160.99 462.651 161.001L462.666 162.475L462.681 163.948C463.826 163.936 465.493 163.931 467.56 163.956L467.577 162.482ZM462.666 162.475L462.651 161.001C462.068 161.007 461.615 161.015 461.31 161.021L461.339 162.494L461.367 163.967C461.666 163.961 462.109 163.954 462.681 163.948L462.666 162.475ZM461.339 162.494L461.31 161.021C461.162 161.024 461.043 161.026 460.962 161.028L460.997 162.501L461.032 163.974C461.104 163.972 461.214 163.97 461.367 163.967L461.339 162.494ZM460.997 162.501L460.962 161.028C460.935 161.029 460.892 161.03 460.873 161.03L460.911 162.503L460.949 163.976C460.968 163.975 460.983 163.975 461.032 163.974L460.997 162.501ZM460.911 162.503L460.873 161.03C460.845 161.031 460.823 161.032 460.814 161.033C460.812 161.033 460.811 161.033 460.811 161.033C460.81 161.033 460.81 161.033 460.81 161.033C460.81 161.033 460.81 161.033 460.809 161.033C460.809 161.033 460.81 161.033 460.812 161.033C460.814 161.033 460.819 161.032 460.824 161.032C460.83 161.032 460.839 161.031 460.85 161.031L460.891 162.504L460.932 163.977C460.944 163.976 460.953 163.976 460.96 163.976C460.967 163.975 460.973 163.975 460.977 163.975C460.98 163.975 460.983 163.974 460.984 163.974C460.985 163.974 460.985 163.974 460.985 163.974C460.982 163.974 460.968 163.975 460.949 163.976L460.911 162.503ZM460.891 162.504V161.031H460.885V162.504V163.977H460.891V162.504ZM460.885 162.504L460.844 161.031L456.742 161.144L456.782 162.617L456.823 164.09L460.925 163.977L460.885 162.504ZM456.782 162.617L457.75 163.728L460.844 161.03L459.876 159.92L458.908 158.809L455.814 161.507L456.782 162.617ZM459.876 159.92L460.918 160.962L460.921 160.959L459.879 159.917L458.837 158.875L458.834 158.878L459.876 159.92ZM459.879 159.917L460.848 161.027C460.842 161.032 460.837 161.037 460.833 161.039C460.83 161.042 460.828 161.044 460.827 161.045C460.826 161.046 460.825 161.046 460.825 161.046C460.826 161.046 460.825 161.046 460.826 161.046C460.826 161.045 460.827 161.045 460.828 161.044C460.832 161.04 460.845 161.03 460.861 161.016L459.892 159.906L458.922 158.797C458.933 158.788 458.94 158.781 458.941 158.781C458.941 158.781 458.941 158.781 458.941 158.781C458.941 158.781 458.941 158.781 458.941 158.781C458.94 158.781 458.94 158.781 458.94 158.781C458.939 158.782 458.938 158.783 458.936 158.785C458.934 158.787 458.93 158.789 458.926 158.793C458.923 158.796 458.917 158.801 458.91 158.807L459.879 159.917ZM459.892 159.906L460.862 161.015C460.86 161.017 460.859 161.017 460.862 161.015C460.866 161.012 460.867 161.011 460.873 161.005C460.883 160.997 460.898 160.984 460.915 160.969L459.942 159.862L458.97 158.755C458.965 158.76 458.959 158.765 458.952 158.771C458.95 158.772 458.943 158.778 458.94 158.781C458.936 158.785 458.929 158.791 458.921 158.797L459.892 159.906ZM459.942 159.862L460.915 160.969C460.959 160.931 461.048 160.851 461.12 160.787L460.144 159.684L459.167 158.58C459.062 158.674 459.016 158.715 458.97 158.755L459.942 159.862ZM460.144 159.684L461.12 160.787C461.3 160.628 461.567 160.39 461.911 160.081L460.925 158.986L459.939 157.891C459.604 158.193 459.344 158.424 459.167 158.58L460.144 159.684ZM460.925 158.986L461.911 160.081C462.595 159.465 463.583 158.564 464.792 157.432L463.785 156.356L462.778 155.281C461.584 156.399 460.611 157.286 459.939 157.891L460.925 158.986ZM463.785 156.356L464.792 157.432C467.211 155.166 470.519 151.968 474.075 148.241L473.009 147.224L471.943 146.207C468.434 149.885 465.167 153.043 462.778 155.281L463.785 156.356ZM473.009 147.224L474.075 148.241C481.186 140.785 489.29 131.208 493.257 122.724L491.923 122.1L490.588 121.475C486.84 129.491 479.033 138.773 471.943 146.207L473.009 147.224ZM491.923 122.1L493.257 122.724C502.548 102.857 499.151 81.9614 496.204 69.6835L494.771 70.0273L493.339 70.3712C496.249 82.4989 499.437 102.554 490.588 121.475L491.923 122.1ZM494.771 70.0273L496.204 69.6832L495.773 67.8903L494.341 68.2344L492.908 68.5785L493.339 70.3714L494.771 70.0273ZM494.341 68.2344L494.36 69.7076L496.204 69.6832L496.185 68.21L496.165 66.7367L494.321 66.7612L494.341 68.2344ZM496.185 68.21V69.6833H496.212V68.21V66.7366H496.185V68.21ZM496.212 68.21L496.23 69.6832C496.256 69.6829 496.27 69.6826 496.305 69.6822L496.289 68.209L496.273 66.7357C496.241 66.7361 496.202 66.7366 496.194 66.7367L496.212 68.21ZM496.289 68.209L496.305 69.6822C496.373 69.6815 496.471 69.6804 496.6 69.6794L496.588 68.2061L496.576 66.7328C496.443 66.7339 496.341 66.735 496.273 66.7357L496.289 68.209ZM496.588 68.2061L496.6 69.6794C496.859 69.6772 497.242 69.6751 497.738 69.6735L497.733 68.2002L497.729 66.7269C497.23 66.7284 496.841 66.7305 496.576 66.7328L496.588 68.2061ZM497.733 68.2002L497.738 69.6735C498.727 69.6705 500.161 69.6716 501.938 69.6881L501.952 68.2148L501.966 66.7416C500.175 66.7249 498.729 66.7238 497.729 66.7269L497.733 68.2002Z" fill="#A9F5FF"/>
</g>
<g filter="url(#filter4_diii_2083_18941)">
<path d="M154.633 149.241L179.433 162.506L175.013 149.241L164.699 143.352L160.527 135.981L188.52 130.087C188.52 130.087 223.365 122.653 245.981 119.774C309.917 111.633 347.307 112.827 410.996 122.72C431.289 125.873 452.002 130.087 452.002 130.087L472.629 144.821L452.002 163.979C452.002 163.979 477.082 157.018 486.137 144.821C492.58 136.141 494.982 130.176 497.923 119.774C501.07 108.645 500.87 90.3068 500.87 90.3068C500.87 90.3068 505.181 63.4823 497.923 49.053C492.624 38.5176 486.734 34.073 477.327 26.9759L477.296 26.9528C464.751 17.4876 455.548 15.1501 440.463 10.746C420.457 4.90543 387.422 4.85259 387.422 4.85259C387.422 4.85259 289.475 -6.06574 228.301 4.85259C206.732 8.7022 173.787 18.1127 173.787 18.1127C173.787 18.1127 155.558 27.5465 147.267 37.2662C142.398 42.9738 136.953 53.4731 136.953 53.4731V71.1532V102.094L141.373 130.087L154.633 149.241Z" fill="#64EAFB"/>
</g>
<path d="M190.736 130.261C190.736 130.261 179.82 167.472 179 161.309C178.181 155.146 176.771 153.065 173.147 148.032C168.57 141.676 156.527 144.043 157.01 136.205C157.474 128.691 173.147 125.855 173.147 125.855C173.147 125.855 204.285 119.368 224.49 116.985C254.1 113.491 270.96 114.165 300.771 114.028C334.59 113.872 353.611 114.254 387.322 116.985C403.97 118.333 413.328 119.047 429.863 121.42C443.104 123.32 460.338 125.855 460.338 125.855C460.338 125.855 470.906 126.775 473.779 131.769C477.403 138.069 472.176 143.545 467.99 149.481C463.475 155.882 451.853 161.309 451.853 161.309L453.334 131.769C453.334 131.769 445.292 130.827 440.132 130.291C409.312 127.088 391.883 126.889 360.917 125.855C315.111 124.326 289.262 122.388 243.56 125.855C218.831 127.731 190.736 130.261 190.736 130.261Z" fill="#00ACC2" stroke="url(#paint2_linear_2083_18941)" stroke-width="2.9467"/>
<g filter="url(#filter5_ii_2083_18941)">
<path d="M189.802 43.3861C189.802 42.8141 192.168 42.5281 196.9 42.5281C201.684 42.5281 204.154 42.7881 204.31 43.3081L209.926 61.7161L215.308 43.1521C215.516 42.7361 217.128 42.5281 220.144 42.5281C227.06 42.5281 230.362 42.8661 230.05 43.5421L211.72 95.7241C211.668 96.0361 210.238 96.1921 207.43 96.1921C204.674 96.1921 202.1 96.0881 199.708 95.8801C197.316 95.7241 196.172 95.5161 196.276 95.2561L203.062 78.8761L189.802 43.3861ZM237.781 77.3941C234.557 73.8061 232.945 68.8401 232.945 62.4961C232.945 56.1521 234.557 51.1861 237.781 47.5981C241.057 44.0101 245.451 42.2161 250.963 42.2161C256.475 42.2161 260.843 44.0101 264.067 47.5981C267.291 51.1861 268.903 56.1521 268.903 62.4961C268.903 68.8401 267.291 73.8061 264.067 77.3941C260.843 80.9821 256.475 82.7761 250.963 82.7761C245.451 82.7761 241.057 80.9821 237.781 77.3941ZM250.963 55.2421C248.051 55.2421 246.595 57.6341 246.595 62.4181C246.595 67.2021 248.051 69.5941 250.963 69.5941C253.927 69.5941 255.409 67.2021 255.409 62.4181C255.409 57.6341 253.927 55.2421 250.963 55.2421ZM274.027 43.4641C274.027 42.8921 276.263 42.6061 280.735 42.6061C285.207 42.6061 287.443 42.8921 287.443 43.4641V66.2401C287.443 68.8401 288.275 70.1401 289.939 70.1401C291.187 70.1401 292.591 69.5941 294.151 68.5021V43.4641C294.151 42.9441 296.361 42.6841 300.781 42.6841C305.201 42.6841 307.411 42.9441 307.411 43.4641V69.0481H309.439C311.207 69.0481 312.091 70.7381 312.091 74.1181C312.091 75.8341 311.727 77.5761 310.999 79.3441C309.959 81.6321 308.555 82.7761 306.787 82.7761C303.303 82.7761 300.729 81.3461 299.065 78.4861L298.987 78.5641C295.815 81.3721 292.409 82.7761 288.769 82.7761C283.725 82.7761 280.007 81.5281 277.615 79.0321C275.223 76.4841 274.027 72.2981 274.027 66.4741V43.4641ZM372.028 43.3861C372.028 42.9181 373.458 42.6841 376.318 42.6841C382.766 42.6841 385.938 42.8921 385.834 43.3081L378.19 81.2161C378.034 82.0481 375.148 82.4641 369.532 82.4641C363.916 82.4641 361.03 82.0481 360.874 81.2161L357.676 63.7441L353.698 81.2161C353.542 81.9961 350.552 82.3861 344.728 82.3861C338.956 82.3861 335.992 81.9181 335.836 80.9821L328.894 42.9961C328.738 42.6841 330.974 42.5281 335.602 42.5281C340.178 42.5801 342.466 42.6841 342.466 42.8401L346.054 69.2041L352.528 43.1521C352.632 42.8401 354.348 42.6841 357.676 42.6841C361.004 42.6841 362.72 42.8401 362.824 43.1521L369.22 68.8921L372.028 43.3861ZM404.472 81.5281C404.472 81.9441 402.08 82.1521 397.296 82.1521C392.564 82.1521 390.198 81.9701 390.198 81.6061V43.3081C390.198 42.9441 392.564 42.7621 397.296 42.7621C402.08 42.7621 404.472 42.9181 404.472 43.2301V81.5281ZM404.472 38.6281C404.472 38.9921 402.08 39.1741 397.296 39.1741C392.564 39.1741 390.198 39.0181 390.198 38.7061V27.4741C390.198 26.9541 392.564 26.6941 397.296 26.6941C402.08 26.6941 404.472 26.8501 404.472 27.1621V38.6281ZM427.829 81.5281C427.829 81.8921 425.957 82.0741 422.213 82.0741C417.013 81.9181 414.413 81.6321 414.413 81.2161V55.9441H412.385C411.033 55.9441 410.149 54.8001 409.733 52.5121C409.629 51.8361 409.577 51.1601 409.577 50.4841C409.577 48.8721 409.889 47.2601 410.513 45.6481C411.449 43.3601 412.905 42.2161 414.881 42.2161C416.857 42.2161 418.625 42.6841 420.185 43.6201C421.745 44.5561 422.785 45.4921 423.305 46.4281C426.581 43.6201 430.481 42.2161 435.005 42.2161C439.529 42.2161 442.805 43.4381 444.833 45.8821C446.861 48.3261 447.875 52.3301 447.875 57.8941V81.2941C447.875 81.9181 445.639 82.2301 441.167 82.2301C436.747 82.2301 434.537 81.9181 434.537 81.2941V58.7521C434.537 56.1521 433.627 54.8521 431.807 54.8521C431.287 54.8521 430.559 55.0861 429.623 55.5541C428.687 55.9701 428.089 56.2821 427.829 56.4901V81.5281Z" fill="#01626F"/>
</g>
</g>
<defs>
<filter id="filter0_d_2083_18941" x="-60" y="-70" width="766.289" height="373.729" filterUnits="userSpaceOnUse" color-interpolation-filters="sRGB">
<feFlood flood-opacity="0" result="BackgroundImageFix"/>
<feColorMatrix in="SourceAlpha" type="matrix" values="0 0 0 0 0 0 0 0 0 0 0 0 0 0 0 0 0 0 127 0" result="hardAlpha"/>
<feOffset dy="12"/>
<feGaussianBlur stdDeviation="5"/>
<feComposite in2="hardAlpha" operator="out"/>
<feColorMatrix type="matrix" values="0 0 0 0 0.00392157 0 0 0 0 0.384314 0 0 0 0 0.435294 0 0 0 0.34 0"/>
<feBlend mode="normal" in2="BackgroundImageFix" result="effect1_dropShadow_2083_18941"/>
<feBlend mode="normal" in="SourceGraphic" in2="effect1_dropShadow_2083_18941" result="shape"/>
</filter>
<filter id="filter1_f_2083_18941" x="7.0533" y="67.3697" width="176.343" height="167.45" filterUnits="userSpaceOnUse" color-interpolation-filters="sRGB">
<feFlood flood-opacity="0" result="BackgroundImageFix"/>
<feBlend mode="normal" in="SourceGraphic" in2="BackgroundImageFix" result="shape"/>
<feGaussianBlur stdDeviation="1.47335" result="effect1_foregroundBlur_2083_18941"/>
</filter>
<filter id="filter2_i_2083_18941" x="10" y="61.4766" width="624.059" height="175.199" filterUnits="userSpaceOnUse" color-interpolation-filters="sRGB">
<feFlood flood-opacity="0" result="BackgroundImageFix"/>
<feBlend mode="normal" in="SourceGraphic" in2="BackgroundImageFix" result="shape"/>
<feColorMatrix in="SourceAlpha" type="matrix" values="0 0 0 0 0 0 0 0 0 0 0 0 0 0 0 0 0 0 127 0" result="hardAlpha"/>
<feOffset dy="5.89339"/>
<feGaussianBlur stdDeviation="1.47335"/>
<feComposite in2="hardAlpha" operator="arithmetic" k2="-1" k3="1"/>
<feColorMatrix type="matrix" values="0 0 0 0 0.662745 0 0 0 0 0.960784 0 0 0 0 1 0 0 0 1 0"/>
<feBlend mode="normal" in2="shape" result="effect1_innerShadow_2083_18941"/>
</filter>
<filter id="filter3_i_2083_18941" x="10" y="55.5832" width="624.059" height="178.145" filterUnits="userSpaceOnUse" color-interpolation-filters="sRGB">
<feFlood flood-opacity="0" result="BackgroundImageFix"/>
<feBlend mode="normal" in="SourceGraphic" in2="BackgroundImageFix" result="shape"/>
<feColorMatrix in="SourceAlpha" type="matrix" values="0 0 0 0 0 0 0 0 0 0 0 0 0 0 0 0 0 0 127 0" result="hardAlpha"/>
<feOffset dy="-5.89339"/>
<feGaussianBlur stdDeviation="4.42004"/>
<feComposite in2="hardAlpha" operator="arithmetic" k2="-1" k3="1"/>
<feColorMatrix type="matrix" values="0 0 0 0 0.662745 0 0 0 0 0.960784 0 0 0 0 1 0 0 0 1 0"/>
<feBlend mode="normal" in2="shape" result="effect1_innerShadow_2083_18941"/>
</filter>
<filter id="filter4_diii_2083_18941" x="125.166" y="-2.9467" width="388.761" height="190.499" filterUnits="userSpaceOnUse" color-interpolation-filters="sRGB">
<feFlood flood-opacity="0" result="BackgroundImageFix"/>
<feColorMatrix in="SourceAlpha" type="matrix" values="0 0 0 0 0 0 0 0 0 0 0 0 0 0 0 0 0 0 127 0" result="hardAlpha"/>
<feOffset dy="11.7868"/>
<feGaussianBlur stdDeviation="5.89339"/>
<feComposite in2="hardAlpha" operator="out"/>
<feColorMatrix type="matrix" values="0 0 0 0 0.293703 0 0 0 0 0.547846 0 0 0 0 0.581286 0 0 0 0.25 0"/>
<feBlend mode="normal" in2="BackgroundImageFix" result="effect1_dropShadow_2083_18941"/>
<feBlend mode="normal" in="SourceGraphic" in2="effect1_dropShadow_2083_18941" result="shape"/>
<feColorMatrix in="SourceAlpha" type="matrix" values="0 0 0 0 0 0 0 0 0 0 0 0 0 0 0 0 0 0 127 0" result="hardAlpha"/>
<feOffset dx="2.9467" dy="5.89339"/>
<feGaussianBlur stdDeviation="1.47335"/>
<feComposite in2="hardAlpha" operator="arithmetic" k2="-1" k3="1"/>
<feColorMatrix type="matrix" values="0 0 0 0 0.662745 0 0 0 0 0.960784 0 0 0 0 1 0 0 0 1 0"/>
<feBlend mode="normal" in2="shape" result="effect2_innerShadow_2083_18941"/>
<feColorMatrix in="SourceAlpha" type="matrix" values="0 0 0 0 0 0 0 0 0 0 0 0 0 0 0 0 0 0 127 0" result="hardAlpha"/>
<feOffset dx="-2.9467"/>
<feGaussianBlur stdDeviation="1.47335"/>
<feComposite in2="hardAlpha" operator="arithmetic" k2="-1" k3="1"/>
<feColorMatrix type="matrix" values="0 0 0 0 0.662745 0 0 0 0 0.960784 0 0 0 0 1 0 0 0 1 0"/>
<feBlend mode="normal" in2="effect2_innerShadow_2083_18941" result="effect3_innerShadow_2083_18941"/>
<feColorMatrix in="SourceAlpha" type="matrix" values="0 0 0 0 0 0 0 0 0 0 0 0 0 0 0 0 0 0 127 0" result="hardAlpha"/>
<feOffset dy="-5.89339"/>
<feGaussianBlur stdDeviation="1.47335"/>
<feComposite in2="hardAlpha" operator="arithmetic" k2="-1" k3="1"/>
<feColorMatrix type="matrix" values="0 0 0 0 0.329412 0 0 0 0 0.901961 0 0 0 0 0.976471 0 0 0 1 0"/>
<feBlend mode="normal" in2="effect3_innerShadow_2083_18941" result="effect4_innerShadow_2083_18941"/>
</filter>
<filter id="filter5_ii_2083_18941" x="189.801" y="23.2451" width="259.224" height="77.544" filterUnits="userSpaceOnUse" color-interpolation-filters="sRGB">
<feFlood flood-opacity="0" result="BackgroundImageFix"/>
<feBlend mode="normal" in="SourceGraphic" in2="BackgroundImageFix" result="shape"/>
<feColorMatrix in="SourceAlpha" type="matrix" values="0 0 0 0 0 0 0 0 0 0 0 0 0 0 0 0 0 0 127 0" result="hardAlpha"/>
<feOffset dx="1.14943" dy="4.5977"/>
<feGaussianBlur stdDeviation="2.29885"/>
<feComposite in2="hardAlpha" operator="arithmetic" k2="-1" k3="1"/>
<feColorMatrix type="matrix" values="0 0 0 0 0.0156863 0 0 0 0 0.27451 0 0 0 0 0.309804 0 0 0 0.25 0"/>
<feBlend mode="normal" in2="shape" result="effect1_innerShadow_2083_18941"/>
<feColorMatrix in="SourceAlpha" type="matrix" values="0 0 0 0 0 0 0 0 0 0 0 0 0 0 0 0 0 0 127 0" result="hardAlpha"/>
<feOffset dy="-3.44828"/>
<feGaussianBlur stdDeviation="2.29885"/>
<feComposite in2="hardAlpha" operator="arithmetic" k2="-1" k3="1"/>
<feColorMatrix type="matrix" values="0 0 0 0 0.0164586 0 0 0 0 0.27631 0 0 0 0 0.31063 0 0 0 1 0"/>
<feBlend mode="normal" in2="effect1_innerShadow_2083_18941" result="effect2_innerShadow_2083_18941"/>
</filter>
<linearGradient id="paint0_linear_2083_18941" x1="565.452" y1="125.67" x2="541.843" y2="226.504" gradientUnits="userSpaceOnUse">
<stop stop-color="#54E6F9"/>
<stop offset="1" stop-color="#328893"/>
</linearGradient>
<linearGradient id="paint1_linear_2083_18941" x1="95.4542" y1="152.191" x2="95.2251" y2="231.872" gradientUnits="userSpaceOnUse">
<stop stop-color="#54E6F9"/>
<stop offset="1" stop-color="#328893"/>
</linearGradient>
<linearGradient id="paint2_linear_2083_18941" x1="316.894" y1="94.778" x2="318.384" y2="127.303" gradientUnits="userSpaceOnUse">
<stop stop-color="#54E6F9"/>
<stop offset="1" stop-color="#00ACC2"/>
</linearGradient>
</defs>
</svg>
