<svg width="106" height="99" viewBox="0 0 106 99" fill="none" xmlns="http://www.w3.org/2000/svg">
<g filter="url(#filter0_ii_2102_16372)">
<path d="M48.7532 1.39645L48.0907 1.69756C47.253 2.07836 46.4718 2.57296 45.7694 3.16737L41.9383 6.40901C40.8765 7.30744 40.0139 8.41749 39.4054 9.66822L33.7106 21.3741C32.2253 24.4273 29.2922 26.5183 25.9216 26.9268L15.6511 28.1717C15.1034 28.2381 14.5621 28.3497 14.0328 28.5054L8.27125 30.2C6.98885 30.5772 5.79509 31.2076 4.76053 32.0541L3.11777 33.3981C1.65174 34.5976 0.722238 36.3304 0.533757 38.2152C0.399424 39.5585 0.648576 40.9124 1.25233 42.1199L4.55903 48.7333C5.06803 49.7513 5.74707 50.6749 6.56689 51.4644L15.1026 59.6839C17.4393 61.9341 18.5393 65.1778 18.0533 68.3852L16.4913 78.6948C16.3828 79.4105 16.3524 80.1358 16.4006 80.858L16.7747 86.4704C16.8103 87.0036 16.8885 87.5331 17.0087 88.0538L17.8077 91.5164C18.1478 92.9901 18.8952 94.3385 19.9646 95.408C21.4779 96.9213 23.5305 97.7715 25.6707 97.7715H27.0583C28.8707 97.7715 30.6491 97.2789 32.2032 96.3464L47.3281 87.2715C50.9095 84.8839 55.6198 85.0539 59.0175 87.6965L61.7403 89.8143C62.1317 90.1187 62.5451 90.3935 62.9771 90.6366L70.3281 94.7715L74.2167 96.7158C75.6052 97.41 77.1364 97.7715 78.6888 97.7715H81.8593C83.1338 97.7715 84.3703 97.3377 85.3655 96.5416C85.9997 96.0342 86.5162 95.3953 86.8794 94.6689L88.2724 91.8829C88.9667 90.4944 89.3281 88.9633 89.3281 87.4108V78.6272C89.3281 78.0578 89.2795 77.4894 89.1827 76.9282L87.7085 68.3777C87.1564 65.1757 88.1945 61.9051 90.492 59.6076L99.7649 50.3347C100.47 49.6299 101.065 48.8236 101.532 47.9426L104.485 42.3646C105.039 41.3184 105.328 40.1526 105.328 38.9689V38.7409C105.328 37.4568 104.948 36.2013 104.236 35.1328C103.64 34.2392 102.832 33.507 101.884 33.0015L97.1281 30.4648C96.2661 30.0051 95.3414 29.6741 94.3834 29.4825L85.8281 27.7715L78.5525 26.8225C75.9688 26.4855 73.8049 24.7018 72.9809 22.2299C72.8792 21.9247 72.7559 21.627 72.612 21.3392L68.8281 13.7715L64.6581 7.51652C64.1079 6.69109 63.4378 5.95214 62.67 5.32395L59.7524 2.9368C58.8108 2.16639 57.7365 1.57427 56.5823 1.18954L56.0535 1.01328C53.6589 0.215085 51.0511 0.351962 48.7532 1.39645Z" fill="#01626F"/>
</g>
<path d="M48.7532 1.39645L48.0907 1.69756C47.253 2.07836 46.4718 2.57296 45.7694 3.16737L41.9383 6.40901C40.8765 7.30744 40.0139 8.41749 39.4054 9.66822L33.7106 21.3741C32.2253 24.4273 29.2922 26.5183 25.9216 26.9268L15.6511 28.1717C15.1034 28.2381 14.5621 28.3497 14.0328 28.5054L8.27125 30.2C6.98885 30.5772 5.79509 31.2076 4.76053 32.0541L3.11777 33.3981C1.65174 34.5976 0.722238 36.3304 0.533757 38.2152C0.399424 39.5585 0.648576 40.9124 1.25233 42.1199L4.55903 48.7333C5.06803 49.7513 5.74707 50.6749 6.56689 51.4644L15.1026 59.6839C17.4393 61.9341 18.5393 65.1778 18.0533 68.3852L16.4913 78.6948C16.3828 79.4105 16.3524 80.1358 16.4006 80.858L16.7747 86.4704C16.8103 87.0036 16.8885 87.5331 17.0087 88.0538L17.8077 91.5164C18.1478 92.9901 18.8952 94.3385 19.9646 95.408C21.4779 96.9213 23.5305 97.7715 25.6707 97.7715H27.0583C28.8707 97.7715 30.6491 97.2789 32.2032 96.3464L47.3281 87.2715C50.9095 84.8839 55.6198 85.0539 59.0175 87.6965L61.7403 89.8143C62.1317 90.1187 62.5451 90.3935 62.9771 90.6366L70.3281 94.7715L74.2167 96.7158C75.6052 97.41 77.1364 97.7715 78.6888 97.7715H81.8593C83.1338 97.7715 84.3703 97.3377 85.3655 96.5416C85.9997 96.0342 86.5162 95.3953 86.8794 94.6689L88.2724 91.8829C88.9667 90.4944 89.3281 88.9633 89.3281 87.4108V78.6272C89.3281 78.0578 89.2795 77.4894 89.1827 76.9282L87.7085 68.3777C87.1564 65.1757 88.1945 61.9051 90.492 59.6076L99.7649 50.3347C100.47 49.6299 101.065 48.8236 101.532 47.9426L104.485 42.3646C105.039 41.3184 105.328 40.1526 105.328 38.9689V38.7409C105.328 37.4568 104.948 36.2013 104.236 35.1328C103.64 34.2392 102.832 33.507 101.884 33.0015L97.1281 30.4648C96.2661 30.0051 95.3414 29.6741 94.3834 29.4825L85.8281 27.7715L78.5525 26.8225C75.9688 26.4855 73.8049 24.7018 72.9809 22.2299C72.8792 21.9247 72.7559 21.627 72.612 21.3392L68.8281 13.7715L64.6581 7.51652C64.1079 6.69109 63.4378 5.95214 62.67 5.32395L59.7524 2.9368C58.8108 2.16639 57.7365 1.57427 56.5823 1.18954L56.0535 1.01328C53.6589 0.215085 51.0511 0.351962 48.7532 1.39645Z" stroke="#01626F"/>
<defs>
<filter id="filter0_ii_2102_16372" x="-6" y="-6" width="117.828" height="110.271" filterUnits="userSpaceOnUse" color-interpolation-filters="sRGB">
<feFlood flood-opacity="0" result="BackgroundImageFix"/>
<feBlend mode="normal" in="SourceGraphic" in2="BackgroundImageFix" result="shape"/>
<feColorMatrix in="SourceAlpha" type="matrix" values="0 0 0 0 0 0 0 0 0 0 0 0 0 0 0 0 0 0 127 0" result="hardAlpha"/>
<feOffset dx="6" dy="6"/>
<feGaussianBlur stdDeviation="3.5"/>
<feComposite in2="hardAlpha" operator="arithmetic" k2="-1" k3="1"/>
<feColorMatrix type="matrix" values="0 0 0 0 0.0246737 0 0 0 0 0.172781 0 0 0 0 0.193109 0 0 0 0.3 0"/>
<feBlend mode="normal" in2="shape" result="effect1_innerShadow_2102_16372"/>
<feColorMatrix in="SourceAlpha" type="matrix" values="0 0 0 0 0 0 0 0 0 0 0 0 0 0 0 0 0 0 127 0" result="hardAlpha"/>
<feOffset dx="-6" dy="-6"/>
<feGaussianBlur stdDeviation="3.5"/>
<feComposite in2="hardAlpha" operator="arithmetic" k2="-1" k3="1"/>
<feColorMatrix type="matrix" values="0 0 0 0 0.0313726 0 0 0 0 0.113725 0 0 0 0 0.12549 0 0 0 0.25 0"/>
<feBlend mode="normal" in2="effect1_innerShadow_2102_16372" result="effect2_innerShadow_2102_16372"/>
</filter>
</defs>
</svg>
